<?xml version="1.0" standalone="no"?>
<!DOCTYPE svg PUBLIC "-//W3C//DTD SVG 1.1//EN" "http://www.w3.org/Graphics/SVG/1.1/DTD/svg11.dtd" >
<svg xmlns="http://www.w3.org/2000/svg">
<metadata>
This is a custom SVG webfont generated by Font Squirrel.
Copyright   : Copyright  2011 Rod McDonald Published by Canada Type All rights reserved
Designer    : Rod McDonald Patrick Griffin Kevin King
Foundry     : Canada Type
Foundry URL : httpwwwcanadatypecom
</metadata>
<defs>
<font id="GibsonBold" horiz-adv-x="1361" >
<font-face units-per-em="2048" ascent="1638" descent="-410" />
<missing-glyph horiz-adv-x="399" />
<glyph unicode="&#xfb00;" horiz-adv-x="1536" d="M10 707v337h123v11q0 197 96 286q111 102 334 103q123 0 277 -31l-21 -307q-72 14 -133 14q-92 0 -92 -55v-21h307v11q0 197 96 286q111 102 334 103q123 0 277 -31l-21 -307q-72 14 -133 14q-92 0 -92 -55v-21h205v-337h-205v-707h-461v707h-307v-707h-461v707h-123z " />
<glyph unicode="&#xfb01;" horiz-adv-x="1423" d="M10 707v337h123v11q0 197 96 286q111 102 334 103q123 0 277 -31l-21 -307q-72 14 -133 14q-92 0 -92 -55v-21h205v-337h-205v-707h-461v707h-123zM864 1300.5q0 100.5 67.5 160t178.5 59.5q113 0 179.5 -59.5t66.5 -160t-66.5 -160t-179.5 -59.5q-111 0 -178.5 59.5 t-67.5 160zM881 0v1044h460v-1044h-460z" />
<glyph unicode="&#xfb02;" horiz-adv-x="1437" d="M10 707v337h123v11q0 197 96 286q111 102 334 103q123 0 277 -31l-21 -307q-72 14 -133 14q-92 0 -92 -55v-21h205v-337h-205v-707h-461v707h-123zM891 0v1413h461v-1413h-461z" />
<glyph unicode="&#xfb03;" horiz-adv-x="2160" d="M10 707v337h123v11q0 197 96 286q111 102 334 103q123 0 277 -31l-21 -307q-72 14 -133 14q-92 0 -92 -55v-21h307v11q0 197 96 286q111 102 334 103q123 0 277 -31l-21 -307q-72 14 -133 14q-92 0 -92 -55v-21h205v-337h-205v-707h-461v707h-307v-707h-461v707h-123z M1632 1300.5q0 100.5 67.5 160t178.5 59.5q113 0 179.5 -59.5t66.5 -160t-66.5 -160t-179.5 -59.5q-111 0 -178.5 59.5t-67.5 160zM1649 0v1044h460v-1044h-460z" />
<glyph unicode="&#xfb04;" horiz-adv-x="2170" d="M10 707v337h123v11q0 197 96 286q111 102 334 103q174 0 277 -31l-21 -307q-72 14 -133 14q-92 0 -92 -55v-21h307v11q0 197 96 286q111 102 334 103q174 0 277 -31l-21 -307q-72 14 -133 14q-92 0 -92 -55v-21h205v-337h-205v-707h-461v707h-307v-707h-461v707h-123z M1622 0v1413h461v-1413h-461z" />
<glyph unicode="fj" horiz-adv-x="1392" d="M10 707v337h123v11q0 197 96 286q111 102 334 103q123 0 277 -31l-21 -307q-72 14 -133 14q-92 0 -92 -55v-21h205v-337h-205v-707h-461v707h-123zM707 -358l10 348q31 -10 82 -10q43 0 62.5 19t19.5 77v968h460v-993q0 -227 -108 -327q-109 -102 -318 -103zM864 1300.5 q0 100.5 67.5 160t178.5 59.5q113 0 179.5 -59.5t66.5 -160t-66.5 -160t-179.5 -59.5q-111 0 -178.5 59.5t-67.5 160z" />
<glyph unicode="ft" horiz-adv-x="1597" d="M10 707v337h123v11q0 197 96 286q111 102 334 103q174 0 277 -31l-21 -307q-72 14 -133 14q-92 0 -92 -55v-21h317v256h461v-256h215v-337h-215v-287q0 -43 19.5 -57.5t62.5 -14.5q23 0 48.5 4t39.5 8l14 2l21 -352q-139 -35 -287 -35q-186 0 -286 91q-92 86 -93 303v338 h-317v-707h-461v707h-123z" />
<glyph unicode=" "  horiz-adv-x="399" />
<glyph unicode="&#x09;" horiz-adv-x="399" />
<glyph unicode="&#xa0;" horiz-adv-x="399" />
<glyph unicode="!" horiz-adv-x="716" d="M106 199q0 106 69 164.5t183 58.5q113 0 181.5 -59.5t68.5 -164t-68.5 -163t-181.5 -58.5q-115 0 -183.5 59t-68.5 163zM117 1413h481l-41 -921h-399z" />
<glyph unicode="&#x22;" horiz-adv-x="1198" d="M113 1413h419l-51 -584h-317zM666 1413h419l-51 -584h-317z" />
<glyph unicode="#" horiz-adv-x="1454" d="M92 403v222h246l51 266h-221v219h262l82 420h246l-82 -420h235l82 420h246l-82 -420h205v-219h-246l-51 -266h219v-222h-260l-82 -419h-246l82 419h-235l-82 -419h-246l82 419h-205zM584 625h235l51 266h-235z" />
<glyph unicode="$" d="M147 174l185 297q43 -43 138 -83t144 -46l11 180l-82 31q-137 51 -221 123q-123 109 -123 287q0 197 149 321q106 94 318 113l6 82h178l-6 -86q92 -8 194.5 -49t163.5 -95l-153 -286q-125 94 -240 112l-10 -180l133 -55q281 -119 280 -379q0 -205 -168 -338 q-53 -43 -139 -73t-147 -36l-6 -75h-179l5 71q-259 21 -431 164zM594 1014q0 -49 55 -72l10 137q-27 0 -46 -18t-19 -47zM762 338q25 4 46 22.5t21 42.5q0 49 -57 78z" />
<glyph unicode="%" horiz-adv-x="1945" d="M61 1038q0 180 111 288t289 108t288.5 -107.5t110.5 -288.5q0 -178 -110.5 -285.5t-288.5 -107.5t-289 107.5t-111 285.5zM348 1044.5q0 -143.5 113 -143.5q117 0 117 143.5t-117 143.5q-113 0 -113 -143.5zM440 55l885 1399l180 -108l-887 -1397zM1085 362 q0 180 111 288t289 108t288.5 -107.5t110.5 -288.5q0 -178 -110.5 -285.5t-288.5 -107.5t-289 107.5t-111 285.5zM1372 368.5q0 -143.5 113 -143.5q117 0 117 143.5t-117 143.5q-113 0 -113 -143.5z" />
<glyph unicode="&#x26;" horiz-adv-x="1669" d="M61 410q0 131 88.5 229t223.5 143q-133 137 -133 287q0 188 149.5 281.5t358.5 93.5q131 0 236.5 -35t177 -120t71.5 -210q0 -117 -74 -214t-176 -148l123 -123q111 102 188 219l308 -184q-121 -182 -256 -287l323 -322v-20h-522l-103 102q-109 -74 -208 -100.5 t-222 -26.5q-229 0 -391 110t-162 325zM502 420q0 -51 41 -82t92 -31q111 0 168 45l-199 201l-20 -10q-82 -39 -82 -123zM659 1065q0 -14 5.5 -27.5t13.5 -25t14 -18.5t14.5 -13t10.5 -8l35 -37q102 66 102 129q0 82 -96 82q-99 0 -99 -82z" />
<glyph unicode="'" horiz-adv-x="808" d="M195 1413h419l-51 -584h-317z" />
<glyph unicode="(" horiz-adv-x="788" d="M92 614.5q0 145.5 25.5 285.5t57.5 237.5t87 206t89 160.5l89 134l287 -143q-94 -141 -175 -386t-81 -494.5t81 -494.5t175 -386l-287 -144l-89 135q-34 52 -89 160.5t-87 205.5t-57.5 237.5t-25.5 286z" />
<glyph unicode=")" horiz-adv-x="788" d="M61 -266q94 141 175 386t81 494.5t-80.5 494.5t-175.5 386l287 143l89 -134q34 -52 89.5 -160.5t87 -206t57 -237.5t25.5 -285.5t-25.5 -286t-57 -237.5t-87 -205.5t-89.5 -160.5l-89 -135z" />
<glyph unicode="*" horiz-adv-x="1075" d="M102 1106l72 215l270 -113l-24 277h235l-26 -277l272 113l72 -215l-297 -72l205 -256l-185 -129l-159 273l-158 -273l-184 129l204 256z" />
<glyph unicode="+" horiz-adv-x="1505" d="M164 543v327h424v420h327v-420h426v-327h-426v-420h-327v420h-424z" />
<glyph unicode="," horiz-adv-x="716" d="M10 -287l205 666h430l-256 -666h-379z" />
<glyph unicode="-" horiz-adv-x="788" d="M72 362v349h645v-349h-645z" />
<glyph unicode="." horiz-adv-x="716" d="M106 199q0 106 69 164.5t183 58.5q113 0 181.5 -59.5t68.5 -164t-68.5 -163t-181.5 -58.5q-115 0 -183.5 59t-68.5 163z" />
<glyph unicode="/" horiz-adv-x="1157" d="M35 -94l835 1739l252 -117l-835 -1739z" />
<glyph unicode="0" d="M51 704.5q0 116.5 22.5 221t72 199t121 162t178 107.5t235.5 40q162 0 286 -59.5t197.5 -164t110.5 -231.5t37 -274.5t-37 -274.5t-110.5 -231.5t-197.5 -164t-286 -59.5q-129 0 -235.5 40t-178 107.5t-121 162t-72 199t-22.5 221zM502 711q0 -342 178 -342 q180 0 180 342q0 338 -180 338q-178 0 -178 -338z" />
<glyph unicode="1" horiz-adv-x="1024" d="M137 1106v307h682v-1413h-446v1106h-236z" />
<glyph unicode="2" d="M92 1239q8 8 24.5 21.5t71 46t114.5 58.5t156.5 47.5t196.5 21.5q262 0 407.5 -116t145.5 -304q0 -72 -20.5 -136.5t-42 -104.5t-72.5 -94t-75 -74l-87 -73l-225 -184h594v-348h-1116l-51 287l460 389q117 98 156 155.5t39 120.5q0 123 -164 123q-80 0 -172 -40 t-166 -113z" />
<glyph unicode="3" d="M92 205l195 276q63 -76 163.5 -114.5t184.5 -38.5q72 0 125 36.5t53 96t-43 91.5t-115 32h-143v307h143q123 0 123 102.5t-143 102.5q-176 0 -338 -113l-154 297q219 154 527 154q223 0 382.5 -106.5t159.5 -283.5q0 -209 -178 -296q100 -31 163 -117t63 -201 q0 -147 -88.5 -252.5t-219.5 -153t-286 -47.5q-207 0 -356.5 67t-217.5 161z" />
<glyph unicode="4" d="M41 256v338l584 819h526v-809h170v-348h-170v-256h-444v256h-666zM451 594h266v379z" />
<glyph unicode="5" d="M92 205l195 276q61 -76 161.5 -114.5t176 -38.5t140 40t64.5 123.5t-61 123.5t-143 40q-141 0 -267 -71l-184 112l92 717h942v-348h-594l-20 -133q74 25 174 24q84 0 167 -24.5t162 -75.5t128 -146.5t49 -217.5q0 -125 -53.5 -226.5t-140.5 -163t-193.5 -93.5t-220.5 -32 q-207 0 -355.5 67t-218.5 161z" />
<glyph unicode="6" d="M92 694q0 344 175 542t501 198q147 0 273 -41t198 -95l-154 -297q-143 86 -297 86q-119 0 -187.5 -66.5t-68.5 -193.5q102 102 328 103q176 0 305 -114t129 -316q0 -223 -154.5 -373t-418.5 -150q-279 0 -454 192.5t-175 524.5zM543 473q0 -66 45 -112t112.5 -46 t113.5 46.5t46 111.5q0 68 -46 114t-113.5 46t-112.5 -46t-45 -114z" />
<glyph unicode="7" d="M123 1065v348h1055l122 -276l-573 -1137h-491l573 1065h-686z" />
<glyph unicode="8" d="M86 410q0 121 64.5 203.5t181.5 117.5q-92 31 -150.5 104.5t-58.5 188.5q0 199 158.5 304.5t398.5 105.5q242 0 400.5 -105.5t158.5 -304.5q0 -115 -59.5 -188.5t-151.5 -104.5q117 -35 181.5 -118t64.5 -203q0 -211 -170 -322t-424 -111q-252 0 -423 111t-171 322z M532 455q0 -61 42 -97t105.5 -36t106.5 35.5t43 97.5q0 63 -42 98t-107 35q-63 0 -105.5 -35t-42.5 -98zM557 993.5q0 -53.5 33 -83t90 -29.5q59 0 91 29.5t32 83t-32 83t-91 29.5q-57 0 -90 -29.5t-33 -83z" />
<glyph unicode="9" d="M66 911q0 223 154.5 373t418.5 150q279 0 455 -192.5t176 -524.5q0 -344 -175 -542t-501 -198q-147 0 -273 41t-198 95l153 297q143 -88 297 -88q119 0 187.5 67.5t68.5 194.5q-102 -102 -327 -103q-176 0 -306 113.5t-130 316.5zM502 946q0 -66 45 -112t112.5 -46 t113.5 46.5t46 111.5q0 68 -46 114t-113.5 46t-112.5 -46t-45 -114z" />
<glyph unicode=":" horiz-adv-x="716" d="M106 199q0 106 69 164.5t183 58.5q113 0 181.5 -59.5t68.5 -164t-68.5 -163t-181.5 -58.5q-115 0 -183.5 59t-68.5 163zM106 844q0 106 69 164.5t183 58.5q113 0 181.5 -59.5t68.5 -164t-68.5 -162.5t-181.5 -58q-115 0 -183.5 58.5t-68.5 162.5z" />
<glyph unicode=";" horiz-adv-x="716" d="M10 -287l205 666h430l-256 -666h-379zM106 844q0 106 69 164.5t183 58.5q113 0 181.5 -59.5t68.5 -164t-68.5 -162.5t-181.5 -58q-115 0 -183.5 58.5t-68.5 162.5z" />
<glyph unicode="&#x3c;" horiz-adv-x="1505" d="M164 522v369l1177 389v-358l-727 -215l727 -215v-359z" />
<glyph unicode="=" horiz-adv-x="1505" d="M164 276v328h1177v-328h-1177zM164 809v328h1177v-328h-1177z" />
<glyph unicode="&#x3e;" horiz-adv-x="1505" d="M164 133v359l727 215l-727 215v358l1177 -389v-369z" />
<glyph unicode="?" horiz-adv-x="1177" d="M102 1311q205 123 492 123q213 0 352 -113t139 -277q0 -119 -33.5 -185t-99.5 -122q-57 -49 -215 -123q-14 -8 -21 -17t-8 -19.5t-1 -34.5v-51h-390v122q0 78 20.5 122t92.5 83l133 72q6 4 29.5 16.5t33 18.5t24 17t20.5 23.5t6 26.5q0 76 -164 76q-154 0 -307 -96z M260 199q0 106 68.5 164.5t183.5 58.5q113 0 181.5 -59.5t68.5 -164t-68.5 -163t-181.5 -58.5q-115 0 -183.5 59t-68.5 163z" />
<glyph unicode="@" horiz-adv-x="1638" d="M72 399q0 324 226 533t542 209q334 0 532 -178q84 -76 139.5 -188.5t55.5 -242.5q0 -258 -144 -405q-131 -127 -297 -127q-164 0 -194 117q-8 -12 -26.5 -31.5t-77 -52.5t-121.5 -33q-121 0 -209 84t-88 254q0 190 109.5 320t289.5 130q145 0 217 -71l8 41h205l-92 -451 q-27 -129 51 -129q63 0 123.5 90t60.5 244q0 217 -140 344t-392 127q-256 0 -420 -162t-164 -422q0 -262 158 -417.5t426 -155.5q139 0 233.5 22.5t206.5 69.5l62 -133q-72 -37 -121 -56.5t-165 -41t-257 -21.5q-313 0 -525 203.5t-212 529.5zM635 358q0 -170 143 -170 q139 0 174 170l41 205q-51 51 -143 51q-96 0 -154 -67q-61 -70 -61 -189z" />
<glyph unicode="A" horiz-adv-x="1454" d="M-20 0l491 1413h512l492 -1413h-502l-55 199h-404l-53 -199h-481zM612 553h209l-104 379z" />
<glyph unicode="B" horiz-adv-x="1351" d="M102 0v1413h584q231 0 358 -51q86 -35 147.5 -114t61.5 -193.5t-60 -198.5t-138 -115q125 -35 197.5 -123t72.5 -208q0 -213 -158 -318q-139 -92 -368 -92h-697zM563 342h154q61 0 102 26.5t41 86.5q0 61 -41 88q-37 25 -102 24h-154v-225zM563 874h92q70 0 103 23 q41 27 41 80q0 55 -41 82q-31 20 -103 20h-92v-205z" />
<glyph unicode="C" horiz-adv-x="1300" d="M41 704.5q0 342.5 215 536t543 193.5q88 0 170 -13.5t134 -33t92 -40t58 -32.5l17 -15l-123 -389q-16 14 -45 35t-112 54.5t-161 33.5q-139 0 -231 -83t-92 -240q0 -154 94 -236t229 -82q209 0 338 129l133 -368q-178 -178 -501 -179q-328 0 -543 193.5t-215 536z" />
<glyph unicode="D" horiz-adv-x="1474" d="M102 0v1413h533q365 0 563 -153q236 -180 236 -553t-236 -553q-199 -154 -563 -154h-533zM563 389h107q143 0 215 72q82 82 82 246q0 178 -82 256q-72 72 -215 71h-107v-645z" />
<glyph unicode="E" horiz-adv-x="1187" d="M102 0v1413h1004v-364h-543v-154h512v-363h-512v-163h563v-369h-1024z" />
<glyph unicode="F" horiz-adv-x="1126" d="M102 0v1413h983v-364h-522v-220h492v-364h-492v-465h-461z" />
<glyph unicode="G" horiz-adv-x="1515" d="M41 706.5q0 182.5 63.5 325t171 228.5t240.5 130t283 44q57 0 110.5 -6.5t96.5 -15.5t85 -24.5t72.5 -28.5t62 -32.5t52 -34t42 -34l32.5 -29.5l24 -25l17 -16l-308 -256q-123 123 -286 123q-127 0 -210 -92.5t-83 -256t83 -256t210 -92.5q74 0 122 13.5t60 25.5l12 13 v102h-215v342h666v-618l-77 -68q-26 -23 -92.5 -66t-125.5 -65.5t-155.5 -41t-205.5 -18.5q-145 0 -277 44.5t-238.5 131.5t-169 229t-62.5 324.5z" />
<glyph unicode="H" horiz-adv-x="1515" d="M102 0v1413h463v-512h385v512h463v-1413h-463v522h-385v-522h-463z" />
<glyph unicode="I" horiz-adv-x="667" d="M102 0v1413h463v-1413h-463z" />
<glyph unicode="J" horiz-adv-x="665" d="M-102 -344l20 334q61 -20 113 -21q35 0 53 16.5t18 65.5v1362h461v-1362q0 -225 -100.5 -327.5t-298.5 -102.5q-80 0 -160.5 11.5t-105.5 23.5z" />
<glyph unicode="K" horiz-adv-x="1392" d="M102 0v1413h461v-430l297 430h543l-457 -569l488 -844h-553l-236 471l-82 -102v-369h-461z" />
<glyph unicode="L" horiz-adv-x="1064" d="M102 0v1413h461v-1034h481v-379h-942z" />
<glyph unicode="M" horiz-adv-x="1832" d="M61 0l82 1413h594l178 -768l181 768h594l82 -1413h-455l-17 809l-184 -809h-399l-185 809l-16 -809h-455z" />
<glyph unicode="N" horiz-adv-x="1556" d="M102 0v1413h502l410 -788q-10 154 -10 256v532h450v-1413h-481l-430 788q10 -154 10 -256v-532h-451z" />
<glyph unicode="O" horiz-adv-x="1617" d="M41 704.5q0 337.5 215 534.5t553 197t553 -197t215 -534.5t-215 -533.5t-553 -196t-553 196t-215 533.5zM506 714.5q0 -147.5 83 -238.5t220 -91t219 91t82 238.5t-82 238.5t-219 91t-220 -91t-83 -238.5z" />
<glyph unicode="P" horiz-adv-x="1280" d="M102 0v1413h615q252 0 393 -113q160 -127 160 -374q0 -246 -160 -373q-141 -113 -393 -113h-152v-440h-463zM563 788h76q76 0 113 25q51 35 51 113t-51 112q-37 27 -113 27h-76v-277z" />
<glyph unicode="Q" horiz-adv-x="1617" d="M41 704.5q0 337.5 215 534.5t553 197t553 -197t215 -534q0 -258 -133 -441l153 -172l-276 -246l-172 191q-150 -61 -340 -62q-338 0 -553 196t-215 533.5zM506 714.5q0 -147.5 83 -238.5t220 -91l29 2l-39 43l276 246l31 -35q4 33 4 74q0 147 -82 238t-219 91t-220 -91 t-83 -238.5z" />
<glyph unicode="R" horiz-adv-x="1351" d="M102 0v1413h615q264 0 409 -102q174 -123 174 -348q0 -285 -235 -426l317 -537h-532l-225 471h-60v-471h-463zM563 819h117q72 0 102 25q51 37 51.5 98.5t-51.5 95.5q-33 27 -102 27h-117v-246z" />
<glyph unicode="S" horiz-adv-x="1167" d="M0 164l205 348q88 -74 201.5 -114t175.5 -40q104 0 104 60q0 18 -17.5 33.5t-34 22.5t-50.5 18q-88 25 -205 65q-137 55 -195 105q-129 111 -129 301q0 207 164 342q147 123 416 122q139 0 275.5 -46t228.5 -124l-176 -327q-74 63 -172.5 99t-163.5 36q-115 0 -115 -57 q0 -8 3 -15.5t11.5 -13.5l14.5 -10t17 -9.5t17.5 -7.5l19.5 -6t15 -4q6 -2 73 -21.5t95 -29.5q158 -53 236 -119q133 -115 133 -307q0 -225 -184 -369q-158 -121 -418 -121q-291 1 -545 189z" />
<glyph unicode="T" horiz-adv-x="1128" d="M0 1053v360h1128v-360h-333v-1053h-463v1053h-332z" />
<glyph unicode="U" horiz-adv-x="1474" d="M92 604v809h465v-829q0 -106 47 -154q51 -51 133 -51t133 51q45 45 45 154v829h467v-809q0 -307 -153 -461q-166 -166 -491.5 -166t-491.5 166q-154 154 -154 461z" />
<glyph unicode="V" horiz-adv-x="1474" d="M-20 1413h491l266 -819l267 819h491l-532 -1413h-451z" />
<glyph unicode="W" horiz-adv-x="2078" d="M-20 1413h481l174 -788l174 788h461l174 -788l174 788h481l-399 -1413h-471l-191 799l-188 -799h-471z" />
<glyph unicode="X" horiz-adv-x="1474" d="M-41 0l471 737l-446 676h553l200 -379l199 379h553l-445 -676l472 -737h-553l-226 451l-225 -451h-553z" />
<glyph unicode="Y" d="M-41 1413h512l209 -477l211 477h512l-492 -860v-553h-462v553z" />
<glyph unicode="Z" horiz-adv-x="1351" d="M61 0v328l615 716h-594v369h1188v-317l-615 -717h645v-379h-1239z" />
<glyph unicode="[" horiz-adv-x="788" d="M123 -334v1895h563v-199h-211v-1495h211v-201h-563z" />
<glyph unicode="\" horiz-adv-x="1157" d="M53 1518l234 110l815 -1734l-232 -109z" />
<glyph unicode="]" horiz-adv-x="788" d="M102 -133h209v1495h-209v199h564v-1895h-564v201z" />
<glyph unicode="^" horiz-adv-x="1505" d="M178 614l389 871h369l389 -871h-358l-215 512l-215 -512h-359z" />
<glyph unicode="_" horiz-adv-x="1024" d="M0 -174v348h1024v-348h-1024z" />
<glyph unicode="`" horiz-adv-x="1024" d="M256 1413h369l143 -297h-317z" />
<glyph unicode="a" horiz-adv-x="1208" d="M25 317q0 74 28.5 131.5t71.5 91t100.5 56t107.5 32t101 11.5l242 10v10q0 98 -170 99q-166 0 -328 -92l-112 290q236 109 501 109q293 0 430 -123q139 -123 140 -369v-573h-437l-10 92q-117 -117 -266 -117q-166 0 -282.5 82t-116.5 260zM485 338q0 -82 103 -82 q51 0 92 41v129l-92 -6q-103 -4 -103 -82z" />
<glyph unicode="b" horiz-adv-x="1355" d="M86 0v1413h461v-297l-4 -164q10 12 29.5 30.5t97.5 50.5t174 32q219 0 350 -154.5t131 -390t-131 -390.5t-350 -155q-221 0 -328 138l6 -113h-436zM532 526q0 -84 47.5 -131t116.5 -47q68 0 116 47t48 131t-47 132.5t-116.5 48.5t-117 -47.5t-47.5 -133.5z" />
<glyph unicode="c" horiz-adv-x="1003" d="M31 520q0 252 165.5 398.5t407.5 146.5q104 0 196.5 -20.5t133.5 -40.5l39 -21l-72 -348q-96 72 -225 72q-82 0 -136.5 -47.5t-54.5 -133.5t53.5 -132t147.5 -46q121 0 215 72l82 -348q-14 -10 -42 -26.5t-125 -43.5t-212 -27q-242 0 -407.5 146.5t-165.5 398.5z" />
<glyph unicode="d" horiz-adv-x="1355" d="M31 520.5q0 235.5 131 390t350 154.5q96 0 171 -28.5t103 -57.5l27 -27q-4 82 -4 164v297h461v-1413h-436l6 113q-106 -137 -328 -138q-219 0 -350 155t-131 390.5zM496 526q0 -84 48 -131t115 -47q70 0 117 47t47 131q0 86 -47 133.5t-116.5 47.5t-116.5 -48.5 t-47 -132.5z" />
<glyph unicode="e" horiz-adv-x="1202" d="M31 520q0 258 168 401.5t426 143.5q248 0 400.5 -142.5t152.5 -379.5l-7 -129h-686q20 -117 201 -117q164 0 287 82l174 -225q-4 -2 -10 -9q-205 -170 -519 -170q-258 0 -422.5 142.5t-164.5 402.5zM485 655h267q-4 55 -40 89t-94 34q-55 0 -92 -34t-41 -89z" />
<glyph unicode="f" horiz-adv-x="768" d="M10 707v337h123v11q0 197 96 286q111 102 334 103q123 0 277 -31l-21 -307q-72 14 -133 14q-92 0 -92 -55v-21h205v-337h-205v-707h-461v707h-123z" />
<glyph unicode="g" horiz-adv-x="1355" d="M31 -225l174 286q66 -41 164 -71.5t184 -30.5q154 0 215 61q45 45 45 123v21q-100 -113 -301 -113q-199 0 -340 132t-141 374q0 244 141 376t340 132q193 0 301 -123l-4 102h461v-839q0 -295 -201 -451q-168 -133 -496 -133q-160 0 -306 44t-236 110zM496 553 q0 -70 47 -115t116.5 -45t116.5 45t47 115q0 68 -47 113t-116.5 45t-116.5 -45t-47 -113z" />
<glyph unicode="h" horiz-adv-x="1290" d="M86 0v1413h461v-307l-4 -195q96 154 291 154q215 0 302 -119t87 -332v-614h-461v512q0 90 -20.5 135t-86.5 45q-68 0 -88 -45t-20 -135v-512h-461z" />
<glyph unicode="i" horiz-adv-x="624" d="M66 1300.5q0 100.5 67.5 160t177.5 59.5q113 0 179.5 -59.5t66.5 -160t-66.5 -160t-179.5 -59.5q-111 0 -178 59.5t-67 160zM82 0v1044h461v-1044h-461z" />
<glyph unicode="j" horiz-adv-x="624" d="M-92 -358l10 348q31 -10 82 -10q43 0 62.5 19t19.5 77v968h461v-993q0 -227 -109 -327q-109 -102 -317 -103zM66 1300.5q0 100.5 67.5 160t177.5 59.5q113 0 179.5 -59.5t66.5 -160t-66.5 -160t-179.5 -59.5q-111 0 -178 59.5t-67 160z" />
<glyph unicode="k" horiz-adv-x="1259" d="M86 0v1413h461v-645l221 276h522l-358 -389l368 -655h-522l-164 317l-67 -71v-246h-461z" />
<glyph unicode="l" horiz-adv-x="634" d="M86 0v1413h461v-1413h-461z" />
<glyph unicode="m" horiz-adv-x="1908" d="M82 0v1044h461l-6 -133q106 154 282 154q244 0 311 -174q59 92 136 133t198 41q369 0 369 -440v-625h-461v532q0 82 -20.5 121t-71.5 39t-71.5 -39t-20.5 -121v-532h-461v532q0 82 -20.5 121t-71.5 39t-71.5 -39t-20.5 -121v-532h-461z" />
<glyph unicode="n" horiz-adv-x="1294" d="M82 0v1044h461l-6 -133q106 154 292 154q215 0 302.5 -119t87.5 -332v-614h-461v512q0 90 -20.5 135t-88.5 45q-66 0 -86 -45t-20 -135v-512h-461z" />
<glyph unicode="o" horiz-adv-x="1269" d="M31 520q0 256 168 400.5t436 144.5t436 -144.5t168 -400.5t-168 -400.5t-436 -144.5t-436 144.5t-168 400.5zM492 526q0 -82 37.5 -130t105 -48t105.5 48t38 130t-38 131.5t-105.5 49.5t-105 -49.5t-37.5 -131.5z" />
<glyph unicode="p" horiz-adv-x="1351" d="M82 -358v1402h434l-4 -102q123 123 328 123q219 0 350 -154.5t131 -390t-131 -390.5t-350 -155q-211 0 -303 127q6 -51 6 -174v-286h-461zM526 526q0 -84 48.5 -131t115.5 -47q70 0 117 47t47 131q0 86 -47 133.5t-117 47.5q-68 0 -116 -48.5t-48 -132.5z" />
<glyph unicode="q" horiz-adv-x="1351" d="M31 520.5q0 235.5 131 390t350 154.5q205 0 328 -123l-6 102h436v-1402h-461v286q0 123 4 174q-86 -127 -301 -127q-219 0 -350 155t-131 390.5zM496 526q0 -84 48 -131t115 -47q70 0 117 47t47 131q0 86 -47 133.5t-116.5 47.5t-116.5 -48.5t-47 -132.5z" />
<glyph unicode="r" horiz-adv-x="901" d="M82 0v1044h461l-6 -133q92 154 262 154q33 0 58.5 -5t35.5 -11l8 -5l-20 -419h-21q-61 31 -133 30q-94 0 -143 -67q-41 -53 -41 -178v-410h-461z" />
<glyph unicode="s" horiz-adv-x="997" d="M8 119l156 270q66 -43 145.5 -69.5t124.5 -33.5t70 -7q59 0 59 32q0 10 -12 20.5t-38 19.5l-43 16q-17 6 -48 14t-33 8q-72 20 -123 41q-195 68 -194 287q0 160 123.5 255t316.5 95q254 0 442 -121l-125 -258q-158 98 -301 98q-57 0 -57 -34q0 -25 113 -56 q119 -35 147 -47q96 -39 150 -92q86 -86 86 -229q0 -160 -138 -262q-123 -92 -337 -93q-294 1 -484 146z" />
<glyph unicode="t" horiz-adv-x="829" d="M0 707v337h143v256h461v-256h215v-337h-215v-287q0 -43 19.5 -57.5t62.5 -14.5q23 0 48.5 4t39.5 8l14 2l21 -352q-139 -35 -287 -35q-186 0 -286 91q-92 86 -93 303v338h-143z" />
<glyph unicode="u" horiz-adv-x="1273" d="M76 410v634h461v-552q0 -139 98 -140q96 0 96 140v552h461v-1044h-440l-4 92q-117 -117 -287 -117q-217 0 -307 127q-78 109 -78 308z" />
<glyph unicode="v" horiz-adv-x="1249" d="M-20 1044h481l168 -542l170 542h471l-426 -1044h-441z" />
<glyph unicode="w" horiz-adv-x="1812" d="M-10 1044h461l133 -552l133 552h379l133 -552l133 552h461l-338 -1044h-441l-139 512l-137 -512h-440z" />
<glyph unicode="x" horiz-adv-x="1300" d="M-41 0l414 543l-373 501h522l127 -256l129 256h522l-374 -501l415 -543h-522l-170 276l-168 -276h-522z" />
<glyph unicode="y" horiz-adv-x="1249" d="M-20 1044h481l168 -542l170 542h471l-430 -1064q-72 -178 -156 -268.5t-244 -90.5q-104 0 -199.5 15.5t-138.5 31.5l-41 15l93 327q61 -31 143 -30q41 0 62.5 12t29.5 49z" />
<glyph unicode="z" horiz-adv-x="1095" d="M20 0v256l451 451h-430v337h1014v-245l-441 -441h461v-358h-1055z" />
<glyph unicode="{" horiz-adv-x="788" d="M0 481v267q57 0 90 33.5t33 129.5v349q0 162 69.5 231.5t231.5 69.5h272v-199h-92q-76 0 -102.5 -25.5t-26.5 -103.5v-342q0 -231 -178 -266v-21q178 -35 178 -266v-344q0 -76 25.5 -101.5t103.5 -25.5h92v-201h-272q-162 0 -231.5 70.5t-69.5 232.5v348q0 96 -33 130 t-90 34z" />
<glyph unicode="|" horiz-adv-x="788" d="M246 -358v1996h297v-1996h-297z" />
<glyph unicode="}" horiz-adv-x="788" d="M92 -133h92q78 0 102.5 25.5t24.5 101.5v344q0 129 47.5 189.5t133.5 76.5v21q-86 16 -133.5 76.5t-47.5 189.5v342q0 78 -25.5 103.5t-101.5 25.5h-92v199h270q162 0 233 -70t71 -231v-349q0 -96 33.5 -129.5t88.5 -33.5v-267q-55 0 -88.5 -33.5t-33.5 -130.5v-348 q0 -162 -71 -232.5t-233 -70.5h-270v201z" />
<glyph unicode="~" horiz-adv-x="1505" d="M143 727q72 96 175.5 155.5t213.5 59.5q37 0 71 -4t57.5 -9t48.5 -16l36 -15q12 -5 31 -15.5t23 -12.5q102 -51 174 -51q49 0 107.5 33t97.5 80l184 -246q-72 -96 -175.5 -155.5t-213.5 -59.5q-37 0 -71 4t-57.5 9t-47.5 16l-37 15q-12 5 -30.5 15.5t-22.5 12.5 q-102 51 -175 51q-49 0 -107 -33t-97 -80z" />
<glyph unicode="&#xa1;" horiz-adv-x="716" d="M106 844q0 106 69 164.5t183 58.5q113 0 181.5 -59.5t68.5 -164t-68.5 -162.5t-181.5 -58q-115 0 -183.5 58.5t-68.5 162.5zM117 -369l41 922h399l41 -922h-481z" />
<glyph unicode="&#xa2;" d="M188 622.5q0 247.5 154 388t385 156.5v144h209v-150q154 -20 221 -65l-72 -338q-76 39 -149 51v-369q78 10 160 52l71 -328q-82 -59 -231 -80v-145h-209v139q-231 16 -385 156.5t-154 388zM629 629q0 -119 98 -168v338q-98 -49 -98 -170z" />
<glyph unicode="&#xa3;" d="M113 0v328h225q12 86 14 127l6 129h-184v245h188q-20 154 -20 215q0 82 37 161t92 126q119 102 338 103q215 0 399 -123l-133 -267q-109 72 -215 72q-119 0 -119 -123l21 -164h293v-245h-297q-2 -88 -6 -129l-15 -127h533v-328h-1157z" />
<glyph unicode="&#xa4;" d="M133 424v246h88q-2 27 -2 47v41h-86v246h133q66 225 226.5 327.5t377.5 102.5q119 0 223.5 -26t151.5 -52l45 -25l-112 -327q-129 86 -256 86q-160 0 -195 -86h277v-246h-345v-88h345v-246h-277q8 -37 56 -60.5t128 -23.5q154 0 287 100l113 -338q-2 -2 -16 -11l-24 -16 q-11 -7 -35 -20.5t-46.5 -22.5t-57 -20.5t-72.5 -17.5t-87 -11.5t-103 -5.5q-487 0 -614 447h-123z" />
<glyph unicode="&#xa5;" d="M-10 1413h502l188 -471l190 471h502l-328 -563h226v-246h-375v-88h375v-246h-375v-270h-430v270h-373v246h373v88h-373v246h225z" />
<glyph unicode="&#xa6;" horiz-adv-x="788" d="M246 -360v835h297v-835h-297zM246 803v835h297v-835h-297z" />
<glyph unicode="&#xa7;" horiz-adv-x="1484" d="M164 -154l235 236q41 -57 134.5 -110.5t173.5 -53.5q133 0 133 72q0 63 -103 102l-245 92q-313 119 -314 369q0 174 137 272l23 15q-10 8 -24.5 24.5t-39 74.5t-24.5 126q0 180 143.5 274.5t347.5 94.5q313 0 508 -195l-194 -225q-63 63 -145.5 98t-141.5 35 q-119 0 -119 -68q0 -23 19.5 -40t44 -28.5t73.5 -29.5q14 -6 23 -8l188 -72q324 -121 324 -379q0 -57 -16.5 -106t-41 -78t-49 -50.5t-40.5 -29.5l-17 -8q10 -10 25.5 -28.5t41 -81t25.5 -130.5q0 -131 -79.5 -222t-197.5 -129t-261 -38q-371 0 -547 225zM522 625 q0 -37 19.5 -62.5t83.5 -50.5l317 -123q20 20 21 62q0 84 -103 122l-317 123q-21 -30 -21 -71z" />
<glyph unicode="&#xa8;" horiz-adv-x="1024" d="M127 1264q0 74 48 118.5t122 44.5t121 -45t47 -118q0 -72 -48 -118t-120 -46q-74 0 -122 46t-48 118zM557 1264q0 74 48 118.5t122 44.5t121 -45t47 -118q0 -72 -48 -118t-120 -46q-74 0 -122 46t-48 118z" />
<glyph unicode="&#xa9;" horiz-adv-x="1536" d="M41 706.5q0 307.5 210 517.5t517 210t517 -210t210 -517.5t-210 -517t-517 -209.5t-517 209.5t-210 517zM164 706.5q0 -260.5 172 -432.5t432 -172t432 172t172 432.5t-172 432.5t-432 172t-432 -172t-172 -432.5zM348 706.5q0 196.5 128 318.5t327 122q190 0 303 -113 l-82 -174q-92 92 -215 92q-98 0 -167 -62.5t-69 -179t68 -178t168 -61.5q133 0 225 92l82 -174q-123 -123 -313 -123q-199 0 -327 122t-128 318.5z" />
<glyph unicode="&#xaa;" horiz-adv-x="819" d="M66 614q0 55 25.5 94.5t67.5 59.5t83 29.5t86 11.5l141 4v6q0 55 -100 55q-121 0 -211 -55l-66 178q141 61 311 62q190 0 272.5 -76t82.5 -225v-336h-273l-8 59q-72 -72 -170 -71.5t-169.5 49.5t-71.5 155zM352 625q0 -51 62 -52q14 0 28.5 6.5t20.5 12.5l8 6v82l-61 -4 q-58 -6 -58 -51z" />
<glyph unicode="&#xab;" horiz-adv-x="1331" d="M143 522l349 482l208 -144l-239 -338l239 -338l-208 -143zM629 522l348 482l211 -144l-242 -338l242 -338l-211 -143z" />
<glyph unicode="&#xac;" horiz-adv-x="1505" d="M164 758v327h1177v-757h-327v430h-850z" />
<glyph unicode="&#xad;" horiz-adv-x="788" d="M72 362v349h645v-349h-645z" />
<glyph unicode="&#xae;" horiz-adv-x="1536" d="M41 706.5q0 307.5 210 517.5t517 210t517 -210t210 -517.5t-210 -517t-517 -209.5t-517 209.5t-210 517zM164 706.5q0 -260.5 172 -432.5t432 -172t432 172t172 432.5t-172 432.5t-432 172t-432 -172t-172 -432.5zM465 276v861h338q154 0 236.5 -71t82.5 -196 q0 -186 -159 -245l194 -349h-256l-153 318h-64v-318h-219zM684 768h84q133 0 133 96q0 98 -133 99h-84v-195z" />
<glyph unicode="&#xaf;" horiz-adv-x="1024" d="M127 1161v205h768v-205h-768z" />
<glyph unicode="&#xb0;" horiz-adv-x="921" d="M106 1157.5q0 145.5 103.5 246.5t251.5 101q145 0 248.5 -101t103.5 -246.5t-103.5 -247t-248.5 -101.5q-147 0 -251 101.5t-104 247zM297 1157q0 -70 48 -120t116 -50q70 0 119 50t49 120t-49.5 119t-119 49t-116.5 -49t-47 -119z" />
<glyph unicode="&#xb1;" horiz-adv-x="1505" d="M164 41v328h1177v-328h-1177zM164 737v328h420v307h338v-307h419v-328h-419v-307h-338v307h-420z" />
<glyph unicode="&#xb2;" horiz-adv-x="921" d="M82 1311q16 14 46 34.5t125 54.5t193 34q164 0 258.5 -70t94.5 -186q0 -72 -35 -134.5t-70 -93t-90 -69.5l-92 -68h328v-240h-707l-41 189l277 221q76 59 101.5 91t25.5 59q0 55 -76 55q-111 0 -225 -103z" />
<glyph unicode="&#xb3;" horiz-adv-x="921" d="M92 707l144 194q43 -49 106.5 -75.5t108.5 -26.5q39 0 65.5 15t26.5 40q0 57 -82 57h-103v209h103q61 0 61 47q0 41 -71 41q-106 0 -211 -75l-107 202q150 98 338 99q141 0 244.5 -63.5t103.5 -172.5q0 -119 -92 -174q123 -53 123 -184q0 -129 -112.5 -206t-256.5 -77 q-239 0 -389 150z" />
<glyph unicode="&#xb4;" horiz-adv-x="1024" d="M256 1116l143 297h369l-195 -297h-317z" />
<glyph unicode="&#xb5;" horiz-adv-x="1273" d="M76 -358v1402h461v-552q0 -139 98 -140q96 0 96 140v552h461v-1044h-440l-4 92q-33 -33 -101.5 -57.5t-140.5 -24.5l26 -368h-456z" />
<glyph unicode="&#xb6;" horiz-adv-x="1484" d="M51 922q0 240 139.5 365.5t382.5 125.5h809v-287h-82v-1484h-286v1484h-195v-1484h-287v788q-213 8 -347 133.5t-134 358.5z" />
<glyph unicode="&#xb7;" horiz-adv-x="1024" d="M266 600q0 98 66.5 158.5t179.5 60.5q111 0 178.5 -60.5t67.5 -158.5q0 -100 -67.5 -160.5t-178.5 -60.5q-113 0 -179.5 60.5t-66.5 160.5z" />
<glyph unicode="&#xb8;" horiz-adv-x="1024" d="M281 -307l184 307h276l-143 -307h-317z" />
<glyph unicode="&#xb9;" horiz-adv-x="921" d="M205 1198v215h471v-850h-318v635h-153z" />
<glyph unicode="&#xba;" horiz-adv-x="921" d="M86 735.5q0 149.5 104.5 236.5t270.5 87t269.5 -87t103.5 -237q0 -152 -104.5 -238.5t-268.5 -86.5q-166 0 -270.5 88t-104.5 237.5zM373 737.5q0 -53.5 24.5 -83t63.5 -29.5t62.5 29.5t23.5 83t-23.5 83t-62.5 29.5t-63.5 -29.5t-24.5 -83z" />
<glyph unicode="&#xbb;" horiz-adv-x="1331" d="M143 184l240 338l-240 338l209 144l348 -482l-348 -481zM629 184l241 338l-241 338l211 144l348 -482l-348 -481z" />
<glyph unicode="&#xbc;" horiz-adv-x="2048" d="M123 1198v215h471v-850h-318v635h-153zM414 55l886 1399l179 -108l-885 -1397zM1106 154v204l420 492h348v-471h113v-225h-113v-154h-318v154h-450zM1393 379h168v194z" />
<glyph unicode="&#xbd;" horiz-adv-x="2048" d="M102 1198v215h471v-850h-317v635h-154zM383 55l887 1399l178 -106l-885 -1399zM1188 737q16 14 46 35t125 54.5t193 33.5q164 0 258.5 -69.5t94.5 -186.5q0 -72 -35 -134t-70 -93t-90 -70l-92 -67h328v-240h-707l-41 188l277 222q76 59 101.5 90.5t25.5 58.5q0 55 -76 55 q-111 0 -226 -102z" />
<glyph unicode="&#xbe;" horiz-adv-x="2048" d="M92 707l144 194q43 -49 106.5 -75.5t108.5 -26.5q39 0 65.5 15t26.5 40q0 57 -82 57h-103v209h103q61 0 61 47q0 41 -71 41q-106 0 -211 -75l-107 202q150 98 338 99q141 0 244.5 -63.5t103.5 -172.5q0 -119 -92 -174q123 -53 123 -184q0 -129 -112.5 -206t-256.5 -77 q-239 0 -389 150zM532 55l885 1399l180 -108l-886 -1397zM1106 154v204l420 492h348v-471h113v-225h-113v-154h-318v154h-450zM1393 379h168v194z" />
<glyph unicode="&#xbf;" horiz-adv-x="1177" d="M102 0q0 119 34 185.5t100 121.5q33 27 75.5 52.5t89.5 48.5l50 22q14 6 21 16.5t8 20.5t1 35v51h389v-123q0 -78 -20.5 -122t-91.5 -83l-133 -71q-6 -4 -30 -16.5t-33 -18.5t-23.5 -17.5t-20.5 -23.5t-6 -27q0 -78 164 -78q150 0 307 99l102 -338q-205 -123 -491 -123 q-213 0 -352.5 112.5t-139.5 276.5zM424 844q0 106 68.5 164.5t183.5 58.5q113 0 181.5 -59.5t68.5 -164t-69 -162.5t-181 -58q-115 0 -183.5 58.5t-68.5 162.5z" />
<glyph unicode="&#xc0;" horiz-adv-x="1454" d="M-20 0l491 1413h512l492 -1413h-502l-55 199h-404l-53 -199h-481zM393 1772h369l143 -297h-317zM612 553h209l-104 379z" />
<glyph unicode="&#xc1;" horiz-adv-x="1454" d="M-20 0l491 1413h512l492 -1413h-502l-55 199h-404l-53 -199h-481zM547 1475l143 297h369l-195 -297h-317zM612 553h209l-104 379z" />
<glyph unicode="&#xc2;" horiz-adv-x="1454" d="M-20 0l491 1413h512l492 -1413h-502l-55 199h-404l-53 -199h-481zM332 1475l164 297h460l164 -297h-297l-96 163l-98 -163h-297zM612 553h209l-104 379z" />
<glyph unicode="&#xc3;" horiz-adv-x="1454" d="M-20 0l491 1413h512l492 -1413h-502l-55 199h-404l-53 -199h-481zM307 1495q0 111 82 196t195 85q92 0 168 -45q84 -47 112 -48q70 0 99 89l184 -21q0 -111 -82 -197t-195 -86q-86 0 -170 48q-76 45 -112 45q-68 0 -96 -86zM612 553h209l-104 379z" />
<glyph unicode="&#xc4;" horiz-adv-x="1454" d="M-20 0l491 1413h512l492 -1413h-502l-55 199h-404l-53 -199h-481zM348 1618q0 72 48 118t120 46q74 0 122 -46t48 -118q0 -74 -48 -119t-122 -45t-121 45t-47 119zM612 553h209l-104 379zM768 1618q0 72 48 118t120 46q74 0 122 -46t48 -118q0 -74 -48 -119t-122 -45 t-121 45t-47 119z" />
<glyph unicode="&#xc5;" horiz-adv-x="1454" d="M-20 0l491 1413h512l492 -1413h-502l-55 199h-404l-53 -199h-481zM461 1648.5q0 110.5 75.5 168t190.5 57.5t190.5 -57.5t75.5 -168t-75.5 -168t-190.5 -57.5t-190.5 57.5t-75.5 168zM612 553h209l-104 379zM625 1648.5q0 -92.5 102 -92.5t102 92.5t-102 92.5t-102 -92.5 z" />
<glyph unicode="&#xc6;" horiz-adv-x="2017" d="M-92 0l840 1413h1187v-364h-481v-154h451v-363h-451v-163h502v-369h-963v199h-456l-107 -199h-522zM725 553h268v502z" />
<glyph unicode="&#xc7;" horiz-adv-x="1300" d="M41 705q0 342 215 535.5t543 193.5q88 0 170 -13.5t134 -33t92 -40t58 -32.5l17 -15l-123 -389q-16 14 -45 35t-112 54.5t-161 33.5q-139 0 -231 -83t-92 -240q0 -154 94 -236t229 -82q209 0 338 129l133 -368q-141 -141 -354 -166l-127 -295h-399l158 307 q-70 16 -137.5 47t-141.5 88.5t-129 132t-92 188.5t-37 249z" />
<glyph unicode="&#xc8;" horiz-adv-x="1187" d="M102 0v1413h1004v-364h-543v-154h512v-363h-512v-163h563v-369h-1024zM317 1772h369l143 -297h-317z" />
<glyph unicode="&#xc9;" horiz-adv-x="1187" d="M102 0v1413h1004v-364h-543v-154h512v-363h-512v-163h563v-369h-1024zM379 1475l143 297h369l-195 -297h-317z" />
<glyph unicode="&#xca;" horiz-adv-x="1187" d="M102 0v1413h1004v-364h-543v-154h512v-363h-512v-163h563v-369h-1024zM209 1475l164 297h461l163 -297h-297l-96 163l-98 -163h-297z" />
<glyph unicode="&#xcb;" horiz-adv-x="1187" d="M102 0v1413h1004v-364h-543v-154h512v-363h-512v-163h563v-369h-1024zM225 1618q0 72 48.5 118t119.5 46q74 0 122 -46t48 -118q0 -74 -48 -119t-122 -45t-121 45t-47 119zM649 1618q0 72 48 118t122 46q72 0 120 -46t48 -118q0 -74 -47 -119t-121 -45t-122 45t-48 119z " />
<glyph unicode="&#xcc;" horiz-adv-x="667" d="M47 1772h369l143 -297h-317zM102 0v1413h463v-1413h-463z" />
<glyph unicode="&#xcd;" horiz-adv-x="667" d="M102 0v1413h463v-1413h-463zM106 1475l144 297h368l-194 -297h-318z" />
<glyph unicode="&#xce;" horiz-adv-x="667" d="M-61 1475l163 297h461l164 -297h-297l-96 163l-98 -163h-297zM102 0v1413h463v-1413h-463z" />
<glyph unicode="&#xcf;" horiz-adv-x="667" d="M-47 1618q0 72 48 118t120 46q74 0 122 -46t48 -118q0 -74 -48 -119t-122 -45t-121 45t-47 119zM102 0v1413h463v-1413h-463zM377 1618q0 72 48 118t122 46q72 0 120 -46t48 -118q0 -74 -47 -119t-121 -45t-122 45t-48 119z" />
<glyph unicode="&#xd0;" horiz-adv-x="1474" d="M0 573v287h102v553h533q365 0 563 -153q236 -180 236 -553t-236 -553q-199 -154 -563 -154h-533v573h-102zM563 389h107q143 0 215 72q82 82 82 246q0 178 -82 256q-72 72 -215 71h-107v-174h199v-276h-199v-195z" />
<glyph unicode="&#xd1;" horiz-adv-x="1556" d="M102 0v1413h502l410 -788q-10 154 -10 256v532h450v-1413h-481l-430 788q10 -154 10 -256v-532h-451zM358 1495q0 111 82 196t195 85q92 0 168 -45q84 -47 112 -48q70 0 99 89l184 -21q0 -111 -82 -197t-194 -86q-86 0 -170 48q-76 45 -113 45q-68 0 -96 -86z" />
<glyph unicode="&#xd2;" horiz-adv-x="1617" d="M41 704.5q0 337.5 215 534.5t553 197t553 -197t215 -534.5t-215 -533.5t-553 -196t-553 196t-215 533.5zM455 1772h368l144 -297h-318zM506 714.5q0 -147.5 83 -238.5t220 -91t219 91t82 238.5t-82 238.5t-219 91t-220 -91t-83 -238.5z" />
<glyph unicode="&#xd3;" horiz-adv-x="1617" d="M41 704.5q0 337.5 215 534.5t553 197t553 -197t215 -534.5t-215 -533.5t-553 -196t-553 196t-215 533.5zM506 714.5q0 -147.5 83 -238.5t220 -91t219 91t82 238.5t-82 238.5t-219 91t-220 -91t-83 -238.5zM649 1475l144 297h368l-194 -297h-318z" />
<glyph unicode="&#xd4;" horiz-adv-x="1617" d="M41 704.5q0 337.5 215 534.5t553 197t553 -197t215 -534.5t-215 -533.5t-553 -196t-553 196t-215 533.5zM414 1475l164 297h460l164 -297h-297l-96 163l-98 -163h-297zM506 714.5q0 -147.5 83 -238.5t220 -91t219 91t82 238.5t-82 238.5t-219 91t-220 -91t-83 -238.5z " />
<glyph unicode="&#xd5;" horiz-adv-x="1617" d="M41 704.5q0 337.5 215 534.5t553 197t553 -197t215 -534.5t-215 -533.5t-553 -196t-553 196t-215 533.5zM389 1495q0 111 82 196t195 85q92 0 168 -45q84 -47 112 -48q70 0 98 89l185 -21q0 -111 -82 -197t-195 -86q-86 0 -170 48q-76 45 -112 45q-68 0 -97 -86z M506 714.5q0 -147.5 83 -238.5t220 -91t219 91t82 238.5t-82 238.5t-219 91t-220 -91t-83 -238.5z" />
<glyph unicode="&#xd6;" horiz-adv-x="1617" d="M41 704.5q0 337.5 215 534.5t553 197t553 -197t215 -534.5t-215 -533.5t-553 -196t-553 196t-215 533.5zM428 1618q0 72 48 118t120 46q74 0 122 -46t48 -118q0 -74 -48 -119t-122 -45t-121 45t-47 119zM506 714.5q0 -147.5 83 -238.5t220 -91t219 91t82 238.5t-82 238.5 t-219 91t-220 -91t-83 -238.5zM852 1618q0 72 48 118t122 46q72 0 120 -46t48 -118q0 -74 -47 -119t-121 -45t-122 45t-48 119z" />
<glyph unicode="&#xd7;" horiz-adv-x="1505" d="M168 362l348 345l-348 342l242 241l342 -344l344 344l239 -241l-348 -342l348 -345l-239 -239l-344 342l-342 -342z" />
<glyph unicode="&#xd8;" horiz-adv-x="1617" d="M41 123l135 137q-135 184 -135 445q0 340 215 535.5t553 195.5q242 0 428 -105l145 148l195 -189l-137 -137q137 -182 137 -448q0 -338 -215 -534t-553 -196q-242 0 -428 105l-145 -148zM506 715q0 -49 14 -107l410 414q-57 23 -121 22q-137 0 -220 -91t-83 -238z M700 403q49 -18 109 -18q137 0 219 91t82 239q0 55 -8 94z" />
<glyph unicode="&#xd9;" horiz-adv-x="1474" d="M92 604v809h465v-829q0 -106 47 -154q51 -51 133 -51t133 51q45 45 45 154v829h467v-809q0 -307 -153 -461q-166 -166 -491.5 -166t-491.5 166q-154 154 -154 461zM393 1772h369l143 -297h-317z" />
<glyph unicode="&#xda;" horiz-adv-x="1474" d="M92 604v809h465v-829q0 -106 47 -154q51 -51 133 -51t133 51q45 45 45 154v829h467v-809q0 -307 -153 -461q-166 -166 -491.5 -166t-491.5 166q-154 154 -154 461zM567 1475l144 297h368l-194 -297h-318z" />
<glyph unicode="&#xdb;" horiz-adv-x="1474" d="M92 604v809h465v-829q0 -106 47 -154q51 -51 133 -51t133 51q45 45 45 154v829h467v-809q0 -307 -153 -461q-166 -166 -491.5 -166t-491.5 166q-154 154 -154 461zM342 1475l164 297h461l163 -297h-296l-97 163l-98 -163h-297z" />
<glyph unicode="&#xdc;" horiz-adv-x="1474" d="M92 604v809h465v-829q0 -106 47 -154q51 -51 133 -51t133 51q45 45 45 154v829h467v-809q0 -307 -153 -461q-166 -166 -491.5 -166t-491.5 166q-154 154 -154 461zM356 1618q0 72 48.5 118t119.5 46q74 0 122 -46t48 -118q0 -74 -48 -119t-121.5 -45t-121 45t-47.5 119z M780 1618q0 72 48.5 118t121.5 46q72 0 120 -46t48 -118q0 -74 -47 -119t-120.5 -45t-122 45t-48.5 119z" />
<glyph unicode="&#xdd;" d="M-41 1413h512l209 -477l211 477h512l-492 -860v-553h-462v553zM502 1475l143 297h369l-195 -297h-317z" />
<glyph unicode="&#xde;" horiz-adv-x="1280" d="M102 0v1413h463v-190h142q252 0 393 -113q160 -127 160 -373q0 -248 -160 -375q-141 -113 -393 -112h-142v-250h-463zM563 598h62q72 0 112 27q51 35 51 112q0 76 -51 113q-37 25 -112 24h-62v-276z" />
<glyph unicode="&#xdf;" horiz-adv-x="1351" d="M86 0v870q0 199 68 318q63 113 178 174q135 72 354 72q145 0 255 -34t168 -90.5t86 -118t28 -126.5q0 -109 -53.5 -179.5t-110.5 -92.5q121 -35 191.5 -132.5t70.5 -240.5q0 -227 -149.5 -335t-403.5 -108q-33 0 -74 5.5t-65 11.5l-25 6l21 317q35 -10 75 -10 q174 0 174 143.5t-174 143.5h-55v307h41q143 0 143 113q0 51 -35.5 87t-107.5 36q-78 0 -113 -52q-27 -41 -26 -133v-952h-461z" />
<glyph unicode="&#xe0;" horiz-adv-x="1208" d="M25 317q0 74 28.5 131.5t71.5 91t100.5 56t107.5 32t101 11.5l242 10v10q0 98 -170 99q-166 0 -328 -92l-112 290q236 109 501 109q293 0 430 -123q139 -123 140 -369v-573h-437l-10 92q-117 -117 -266 -117q-166 0 -282.5 82t-116.5 260zM276 1413h369l143 -297h-317z M485 338q0 -82 103 -82q51 0 92 41v129l-92 -6q-103 -4 -103 -82z" />
<glyph unicode="&#xe1;" horiz-adv-x="1208" d="M25 317q0 74 28.5 131.5t71.5 91t100.5 56t107.5 32t101 11.5l242 10v10q0 98 -170 99q-166 0 -328 -92l-112 290q236 109 501 109q293 0 430 -123q139 -123 140 -369v-573h-437l-10 92q-117 -117 -266 -117q-166 0 -282.5 82t-116.5 260zM403 1116l144 297h368 l-194 -297h-318zM485 338q0 -82 103 -82q51 0 92 41v129l-92 -6q-103 -4 -103 -82z" />
<glyph unicode="&#xe2;" horiz-adv-x="1208" d="M25 317q0 74 28.5 131.5t71.5 91t100.5 56t107.5 32t101 11.5l242 10v10q0 98 -170 99q-166 0 -328 -92l-112 290q236 109 501 109q293 0 430 -123q139 -123 140 -369v-573h-437l-10 92q-117 -117 -266 -117q-166 0 -282.5 82t-116.5 260zM219 1116l164 297h461l164 -297 h-297l-97 174l-98 -174h-297zM485 338q0 -82 103 -82q51 0 92 41v129l-92 -6q-103 -4 -103 -82z" />
<glyph unicode="&#xe3;" horiz-adv-x="1208" d="M25 317q0 74 28.5 131.5t71.5 91t100.5 56t107.5 32t101 11.5l242 10v10q0 98 -170 99q-166 0 -328 -92l-112 290q236 109 501 109q293 0 430 -123q139 -123 140 -369v-573h-437l-10 92q-117 -117 -266 -117q-166 0 -282.5 82t-116.5 260zM205 1137q0 111 82 195.5 t194 84.5q92 0 168 -45q84 -47 113 -47q70 0 98 88l184 -20q0 -111 -81.5 -197t-194.5 -86q-86 0 -170 47q-76 45 -113 45q-68 0 -96 -86zM485 338q0 -82 103 -82q51 0 92 41v129l-92 -6q-103 -4 -103 -82z" />
<glyph unicode="&#xe4;" horiz-adv-x="1208" d="M25 317q0 74 28.5 131.5t71.5 91t100.5 56t107.5 32t101 11.5l242 10v10q0 98 -170 99q-166 0 -328 -92l-112 290q236 109 501 109q293 0 430 -123q139 -123 140 -369v-573h-437l-10 92q-117 -117 -266 -117q-166 0 -282.5 82t-116.5 260zM225 1264q0 74 47 118.5 t121 44.5t122 -45t48 -118q0 -72 -48 -118t-122 -46q-72 0 -120 46t-48 118zM485 338q0 -82 103 -82q51 0 92 41v129l-92 -6q-103 -4 -103 -82zM645 1264q0 74 47 118.5t121 44.5t122 -45t48 -118q0 -72 -48 -118t-122 -46q-72 0 -120 46t-48 118z" />
<glyph unicode="&#xe5;" horiz-adv-x="1208" d="M25 317q0 74 28.5 131.5t71.5 91t100.5 56t107.5 32t101 11.5l242 10v10q0 98 -170 99q-166 0 -328 -92l-112 290q236 109 501 109q293 0 430 -123q139 -123 140 -369v-573h-437l-10 92q-117 -117 -266 -117q-166 0 -282.5 82t-116.5 260zM348 1331.5q0 104.5 73 164.5 t187.5 60t188 -60t73.5 -164.5t-73.5 -165t-188 -60.5t-187.5 60.5t-73 165zM485 338q0 -82 103 -82q51 0 92 41v129l-92 -6q-103 -4 -103 -82zM512 1331q0 -41 24.5 -66.5t71.5 -25.5q49 0 74 25.5t25 66.5t-25 66.5t-74 25.5q-47 0 -71.5 -25.5t-24.5 -66.5z" />
<glyph unicode="&#xe6;" horiz-adv-x="1837" d="M25 317q0 74 28.5 131.5t71.5 91t100.5 56t107.5 32t101 11.5l242 10v10q0 98 -170 99q-166 0 -328 -92l-112 290q236 109 501 109q258 0 369 -82q135 82 324 82q248 0 400 -142.5t152 -379.5l-6 -129h-686q20 -117 201 -117q164 0 287 82l174 -225q-4 -2 -10 -9 q-205 -170 -519 -170q-264 0 -409 138q-88 -76 -181.5 -107t-238.5 -31q-166 0 -282.5 82t-116.5 260zM485 338q0 -82 103 -82q61 0 123 41q-23 47 -35 129l-88 -6q-103 -8 -103 -82zM1120 655h266q-4 55 -39.5 89t-93.5 34q-55 0 -92 -34t-41 -89z" />
<glyph unicode="&#xe7;" horiz-adv-x="1003" d="M31 520q0 252 165.5 398.5t407.5 146.5q104 0 196.5 -20.5t133.5 -40.5l39 -21l-72 -348q-96 72 -225 72q-82 0 -136.5 -47.5t-54.5 -133.5t53.5 -132t147.5 -46q121 0 215 72l82 -348q-82 -61 -221 -82l-137 -287h-369l184 291q-66 16 -130 51t-130.5 94.5t-107.5 158.5 t-41 222z" />
<glyph unicode="&#xe8;" horiz-adv-x="1202" d="M31 520q0 258 168 401.5t426 143.5q248 0 400.5 -142.5t152.5 -379.5l-7 -129h-686q20 -117 201 -117q164 0 287 82l174 -225q-4 -2 -10 -9q-205 -170 -519 -170q-258 0 -422.5 142.5t-164.5 402.5zM276 1413h369l143 -297h-317zM485 655h267q-4 55 -40 89t-94 34 q-55 0 -92 -34t-41 -89z" />
<glyph unicode="&#xe9;" horiz-adv-x="1202" d="M31 520q0 258 168 401.5t426 143.5q248 0 400.5 -142.5t152.5 -379.5l-7 -129h-686q20 -117 201 -117q164 0 287 82l174 -225q-4 -2 -10 -9q-205 -170 -519 -170q-258 0 -422.5 142.5t-164.5 402.5zM434 1116l144 297h368l-194 -297h-318zM485 655h267q-4 55 -40 89 t-94 34q-55 0 -92 -34t-41 -89z" />
<glyph unicode="&#xea;" horiz-adv-x="1202" d="M31 520q0 258 168 401.5t426 143.5q248 0 400.5 -142.5t152.5 -379.5l-7 -129h-686q20 -117 201 -117q164 0 287 82l174 -225q-4 -2 -10 -9q-205 -170 -519 -170q-258 0 -422.5 142.5t-164.5 402.5zM219 1116l164 297h461l164 -297h-297l-97 174l-98 -174h-297zM485 655 h267q-4 55 -40 89t-94 34q-55 0 -92 -34t-41 -89z" />
<glyph unicode="&#xeb;" horiz-adv-x="1202" d="M31 520q0 258 168 401.5t426 143.5q248 0 400.5 -142.5t152.5 -379.5l-7 -129h-686q20 -117 201 -117q164 0 287 82l174 -225q-4 -2 -10 -9q-205 -170 -519 -170q-258 0 -422.5 142.5t-164.5 402.5zM246 1264q0 74 47 118.5t120.5 44.5t122 -45t48.5 -118 q0 -72 -48.5 -118t-121.5 -46q-72 0 -120 46t-48 118zM485 655h267q-4 55 -40 89t-94 34q-55 0 -92 -34t-41 -89zM666 1264q0 74 47 118.5t120.5 44.5t122 -45t48.5 -118q0 -72 -48.5 -118t-121.5 -46q-72 0 -120 46t-48 118z" />
<glyph unicode="&#xec;" horiz-adv-x="624" d="M31 1413h368l144 -297h-318zM82 0v1044h461v-1044h-461z" />
<glyph unicode="&#xed;" horiz-adv-x="624" d="M82 0v1044h461v-1044h-461zM82 1116l143 297h369l-195 -297h-317z" />
<glyph unicode="&#xee;" horiz-adv-x="624" d="M-82 1116l164 297h461l164 -297h-297l-99 174l-96 -174h-297zM82 0v1044h461v-1044h-461z" />
<glyph unicode="&#xef;" horiz-adv-x="624" d="M-68 1264q0 74 48.5 118.5t122 44.5t120.5 -45t47 -118q0 -72 -48 -118t-120 -46q-74 0 -122 46t-48 118zM82 0v1044h461v-1044h-461zM352 1264q0 74 48.5 118.5t122 44.5t120.5 -45t47 -118q0 -72 -48 -118t-120 -46q-74 0 -122 46t-48 118z" />
<glyph unicode="&#xf0;" horiz-adv-x="1269" d="M31 514q0 123 49 222.5t126 157.5t162 89t164 31q33 0 66 -5t49 -10l19 -6q-49 66 -156 146l-223 -115l-92 174l147 72q-100 70 -168 102l328 164q68 -33 168 -102l241 122l93 -174l-166 -79q96 -80 135 -125q53 -63 89 -115.5t79 -135.5t65.5 -187.5t22.5 -225.5 q0 -250 -168 -394.5t-432 -144.5t-431 144.5t-167 394.5zM492 522q0 -78 36.5 -126t100.5 -48q66 0 102.5 48t36.5 126t-37 126t-102 48q-63 0 -100 -48t-37 -126z" />
<glyph unicode="&#xf1;" horiz-adv-x="1294" d="M82 0v1044h461l-6 -133q106 154 292 154q215 0 302.5 -119t87.5 -332v-614h-461v512q0 90 -20.5 135t-88.5 45q-66 0 -86 -45t-20 -135v-512h-461zM236 1137q0 111 81.5 195.5t194.5 84.5q92 0 168 -45q84 -47 113 -47q70 0 98 88l184 -20q0 -111 -82 -197t-194 -86 q-86 0 -170 47q-76 45 -113 45q-68 0 -96 -86z" />
<glyph unicode="&#xf2;" horiz-adv-x="1269" d="M31 520q0 256 168 400.5t436 144.5t436 -144.5t168 -400.5t-168 -400.5t-436 -144.5t-436 144.5t-168 400.5zM291 1413h364l144 -297h-318zM492 526q0 -82 37.5 -130t105 -48t105.5 48t38 130t-38 131.5t-105.5 49.5t-105 -49.5t-37.5 -131.5z" />
<glyph unicode="&#xf3;" horiz-adv-x="1269" d="M31 520q0 256 168 400.5t436 144.5t436 -144.5t168 -400.5t-168 -400.5t-436 -144.5t-436 144.5t-168 400.5zM471 1116l143 297h369l-195 -297h-317zM492 526q0 -82 37.5 -130t105 -48t105.5 48t38 130t-38 131.5t-105.5 49.5t-105 -49.5t-37.5 -131.5z" />
<glyph unicode="&#xf4;" horiz-adv-x="1269" d="M31 520q0 256 168 400.5t436 144.5t436 -144.5t168 -400.5t-168 -400.5t-436 -144.5t-436 144.5t-168 400.5zM240 1116l163 297h461l164 -297h-297l-96 174l-98 -174h-297zM492 526q0 -82 37.5 -130t105 -48t105.5 48t38 130t-38 131.5t-105.5 49.5t-105 -49.5 t-37.5 -131.5z" />
<glyph unicode="&#xf5;" horiz-adv-x="1269" d="M31 520q0 256 168 400.5t436 144.5t436 -144.5t168 -400.5t-168 -400.5t-436 -144.5t-436 144.5t-168 400.5zM215 1137q0 111 82 195.5t195 84.5q92 0 167 -45q84 -47 113 -47q70 0 98 88l185 -20q0 -111 -82 -197t-195 -86q-86 0 -170 47q-76 45 -112 45q-68 0 -97 -86z M492 526q0 -82 37.5 -130t105 -48t105.5 48t38 130t-38 131.5t-105.5 49.5t-105 -49.5t-37.5 -131.5z" />
<glyph unicode="&#xf6;" horiz-adv-x="1269" d="M31 520q0 256 168 400.5t436 144.5t436 -144.5t168 -400.5t-168 -400.5t-436 -144.5t-436 144.5t-168 400.5zM256 1264q0 74 47 118.5t121 44.5t122 -45t48 -118q0 -72 -48 -118t-122 -46q-72 0 -120 46t-48 118zM492 526q0 -82 37.5 -130t105 -48t105.5 48t38 130 t-38 131.5t-105.5 49.5t-105 -49.5t-37.5 -131.5zM676 1264q0 74 47 118.5t121 44.5t122 -45t48 -118q0 -72 -48 -118t-122 -46q-72 0 -120 46t-48 118z" />
<glyph unicode="&#xf7;" horiz-adv-x="1505" d="M164 543v327h1177v-327h-1177zM530 254q0 90 66 155.5t156 65.5t155.5 -65.5t65.5 -155.5t-65.5 -155.5t-155.5 -65.5t-156 65.5t-66 155.5zM530 1157q0 90 66 155.5t156 65.5t155.5 -65.5t65.5 -155.5t-65.5 -155.5t-155.5 -65.5t-156 65.5t-66 155.5z" />
<glyph unicode="&#xf8;" horiz-adv-x="1269" d="M31 520q0 256 168 400.5t436 144.5q182 0 326 -70l104 101l164 -160l-92 -86q102 -135 102 -330q0 -256 -168 -400.5t-436 -144.5q-190 0 -332 74l-104 -100l-164 157l94 91q-98 133 -98 323zM471 526q0 -23 2 -34l229 229q-31 10 -63 10q-74 0 -121 -55.5t-47 -149.5z M582 334q25 -12 57 -12q76 0 123 55t47 149q0 23 -2 33z" />
<glyph unicode="&#xf9;" horiz-adv-x="1273" d="M76 410v634h461v-552q0 -139 98 -140q96 0 96 140v552h461v-1044h-440l-4 92q-117 -117 -287 -117q-217 0 -307 127q-78 109 -78 308zM297 1413h369l143 -297h-317z" />
<glyph unicode="&#xfa;" horiz-adv-x="1273" d="M76 410v634h461v-552q0 -139 98 -140q96 0 96 140v552h461v-1044h-440l-4 92q-117 -117 -287 -117q-217 0 -307 127q-78 109 -78 308zM451 1116l143 297h369l-195 -297h-317z" />
<glyph unicode="&#xfb;" horiz-adv-x="1273" d="M76 410v634h461v-552q0 -139 98 -140q96 0 96 140v552h461v-1044h-440l-4 92q-117 -117 -287 -117q-217 0 -307 127q-78 109 -78 308zM240 1116l163 297h461l164 -297h-297l-96 174l-98 -174h-297z" />
<glyph unicode="&#xfc;" horiz-adv-x="1273" d="M76 410v634h461v-552q0 -139 98 -140q96 0 96 140v552h461v-1044h-440l-4 92q-117 -117 -287 -117q-217 0 -307 127q-78 109 -78 308zM256 1264q0 74 47 118.5t121 44.5t122 -45t48 -118q0 -72 -48 -118t-122 -46q-72 0 -120 46t-48 118zM676 1264q0 74 47 118.5 t121 44.5t122 -45t48 -118q0 -72 -48 -118t-122 -46q-72 0 -120 46t-48 118z" />
<glyph unicode="&#xfd;" horiz-adv-x="1249" d="M-20 1044h481l168 -542l170 542h471l-430 -1064q-72 -178 -156 -268.5t-244 -90.5q-104 0 -199.5 15.5t-138.5 31.5l-41 15l93 327q61 -31 143 -30q41 0 62.5 12t29.5 49zM461 1116l143 297h369l-195 -297h-317z" />
<glyph unicode="&#xfe;" horiz-adv-x="1355" d="M86 -358v1771h461v-297l-4 -164q10 12 29.5 30.5t97.5 50.5t174 32q219 0 350 -154.5t131 -390t-131 -390.5t-350 -155q-211 0 -301 127q4 -82 4 -163v-297h-461zM532 526q0 -84 47.5 -131t116.5 -47q68 0 116 47t48 131t-47 132.5t-116.5 48.5t-117 -47.5t-47.5 -133.5z " />
<glyph unicode="&#xff;" horiz-adv-x="1249" d="M-20 1044h481l168 -542l170 542h471l-430 -1064q-72 -178 -156 -268.5t-244 -90.5q-104 0 -199.5 15.5t-138.5 31.5l-41 15l93 327q61 -31 143 -30q41 0 62.5 12t29.5 49zM250 1264q0 74 48 118.5t122 44.5t121 -45t47 -118q0 -72 -48 -118t-120 -46q-74 0 -122 46 t-48 118zM670 1264q0 74 48 118.5t121.5 44.5t121 -45t47.5 -118q0 -72 -48.5 -118t-119.5 -46q-74 0 -122 46t-48 118z" />
<glyph unicode="&#x100;" horiz-adv-x="1454" d="M-20 0l491 1413h512l492 -1413h-502l-55 199h-404l-53 -199h-481zM334 1530v205h768v-205h-768zM612 553h209l-104 379z" />
<glyph unicode="&#x101;" horiz-adv-x="1208" d="M25 317q0 74 28.5 131.5t71.5 91t100.5 56t107.5 32t101 11.5l242 10v10q0 98 -170 99q-166 0 -328 -92l-112 290q236 109 501 109q293 0 430 -123q139 -123 140 -369v-573h-437l-10 92q-117 -117 -266 -117q-166 0 -282.5 82t-116.5 260zM219 1161v205h768v-205h-768z M485 338q0 -82 103 -82q51 0 92 41v129l-92 -6q-103 -4 -103 -82z" />
<glyph unicode="&#x102;" horiz-adv-x="1454" d="M-20 0l491 1413h512l492 -1413h-502l-55 199h-404l-53 -199h-481zM328 1782h184q43 -102 205 -102.5t205 102.5h184q-23 -150 -126 -223.5t-263 -73.5t-263 73.5t-126 223.5zM612 553h209l-104 379z" />
<glyph unicode="&#x103;" horiz-adv-x="1208" d="M25 317q0 74 28.5 131.5t71.5 91t100.5 56t107.5 32t101 11.5l242 10v10q0 98 -170 99q-166 0 -328 -92l-112 290q236 109 501 109q293 0 430 -123q139 -123 140 -369v-573h-437l-10 92q-117 -117 -266 -117q-166 0 -282.5 82t-116.5 260zM215 1413h184q43 -102 205 -102 t205 102h184q-23 -150 -126 -223.5t-263 -73.5t-263 73.5t-126 223.5zM485 338q0 -82 103 -82q51 0 92 41v129l-92 -6q-103 -4 -103 -82z" />
<glyph unicode="&#x104;" horiz-adv-x="1454" d="M-20 0l491 1413h512l492 -1413h-134q-55 -29 -99 -72t-44 -92q0 -82 113 -82q72 0 133 41l51 -102q-14 -12 -38.5 -28.5t-94.5 -45.5t-133 -29q-117 0 -191.5 45.5t-74.5 139.5q0 143 143 225h-133l-55 199h-404l-53 -199h-481zM612 553h209l-104 379z" />
<glyph unicode="&#x105;" horiz-adv-x="1208" d="M25 317q0 74 28.5 131.5t71.5 91t100.5 56t107.5 32t101 11.5l242 10v10q0 98 -170 99q-166 0 -328 -92l-112 290q236 109 501 109q293 0 430 -123q139 -123 140 -369v-573h-113q-57 -29 -100 -72t-43 -92q0 -82 112 -82q72 0 133 41l52 -102q-14 -12 -39 -28.5 t-94.5 -45.5t-133.5 -29q-117 0 -191.5 45.5t-74.5 139.5q0 143 143 225h-88l-10 92q-117 -117 -266 -117q-166 0 -282.5 82t-116.5 260zM485 338q0 -82 103 -82q51 0 92 41v129l-92 -6q-103 -4 -103 -82z" />
<glyph unicode="&#x106;" horiz-adv-x="1300" d="M41 704.5q0 342.5 215 536t543 193.5q88 0 170 -13.5t134 -33t92 -40t58 -32.5l17 -15l-123 -389q-16 14 -45 35t-112 54.5t-161 33.5q-139 0 -231 -83t-92 -240q0 -154 94 -236t229 -82q209 0 338 129l133 -368q-178 -178 -501 -179q-328 0 -543 193.5t-215 536z M549 1485l143 297h369l-195 -297h-317z" />
<glyph unicode="&#x107;" horiz-adv-x="1003" d="M31 520q0 252 165.5 398.5t407.5 146.5q104 0 196.5 -20.5t133.5 -40.5l39 -21l-72 -348q-96 72 -225 72q-82 0 -136.5 -47.5t-54.5 -133.5t53.5 -132t147.5 -46q121 0 215 72l82 -348q-14 -10 -42 -26.5t-125 -43.5t-212 -27q-242 0 -407.5 146.5t-165.5 398.5z M356 1116l144 297h368l-194 -297h-318z" />
<glyph unicode="&#x108;" horiz-adv-x="1300" d="M41 704.5q0 342.5 215 536t543 193.5q88 0 170 -13.5t134 -33t92 -40t58 -32.5l17 -15l-123 -389q-16 14 -45 35t-112 54.5t-161 33.5q-139 0 -231 -83t-92 -240q0 -154 94 -236t229 -82q209 0 338 129l133 -368q-178 -178 -501 -179q-328 0 -543 193.5t-215 536z M346 1485l164 297h461l164 -297h-297l-97 174l-98 -174h-297z" />
<glyph unicode="&#x109;" horiz-adv-x="1003" d="M31 520q0 252 165.5 398.5t407.5 146.5q104 0 196.5 -20.5t133.5 -40.5l39 -21l-72 -348q-96 72 -225 72q-82 0 -136.5 -47.5t-54.5 -133.5t53.5 -132t147.5 -46q121 0 215 72l82 -348q-14 -10 -42 -26.5t-125 -43.5t-212 -27q-242 0 -407.5 146.5t-165.5 398.5z M150 1116l163 297h461l164 -297h-297l-96 174l-99 -174h-296z" />
<glyph unicode="&#x10a;" horiz-adv-x="1300" d="M41 704.5q0 342.5 215 536t543 193.5q88 0 170 -13.5t134 -33t92 -40t58 -32.5l17 -15l-123 -389q-16 14 -45 35t-112 54.5t-161 33.5q-139 0 -231 -83t-92 -240q0 -154 94 -236t229 -82q209 0 338 129l133 -368q-178 -178 -501 -179q-328 0 -543 193.5t-215 536z M522 1638.5q0 71.5 50.5 117.5t120 46t118.5 -46t49 -118q0 -74 -49 -122t-118.5 -48t-120 49.5t-50.5 121z" />
<glyph unicode="&#x10b;" horiz-adv-x="1003" d="M31 520q0 252 165.5 398.5t407.5 146.5q104 0 196.5 -20.5t133.5 -40.5l39 -21l-72 -348q-96 72 -225 72q-82 0 -136.5 -47.5t-54.5 -133.5t53.5 -132t147.5 -46q121 0 215 72l82 -348q-14 -10 -42 -26.5t-125 -43.5t-212 -27q-242 0 -407.5 146.5t-165.5 398.5z M348 1269.5q0 71.5 50.5 118t120 46.5t118.5 -46.5t49 -117.5q0 -74 -49 -122t-118.5 -48t-120 49t-50.5 120.5z" />
<glyph unicode="&#x10c;" horiz-adv-x="1300" d="M41 704.5q0 342.5 215 536t543 193.5q88 0 170 -13.5t134 -33t92 -40t58 -32.5l17 -15l-123 -389q-16 14 -45 35t-112 54.5t-161 33.5q-139 0 -231 -83t-92 -240q0 -154 94 -236t229 -82q209 0 338 129l133 -368q-178 -178 -501 -179q-328 0 -543 193.5t-215 536z M276 1782h297l99 -174l96 174h297l-164 -297h-461z" />
<glyph unicode="&#x10d;" horiz-adv-x="1003" d="M31 520q0 252 165.5 398.5t407.5 146.5q104 0 196.5 -20.5t133.5 -40.5l39 -21l-72 -348q-96 72 -225 72q-82 0 -136.5 -47.5t-54.5 -133.5t53.5 -132t147.5 -46q121 0 215 72l82 -348q-14 -10 -42 -26.5t-125 -43.5t-212 -27q-242 0 -407.5 146.5t-165.5 398.5z M135 1413h297l98 -174l97 174h297l-164 -297h-461z" />
<glyph unicode="&#x10e;" horiz-adv-x="1474" d="M102 0v1413h533q365 0 563 -153q236 -180 236 -553t-236 -553q-199 -154 -563 -154h-533zM283 1782h297l98 -174l96 174h297l-164 -297h-461zM563 389h107q143 0 215 72q82 82 82 246q0 178 -82 256q-72 72 -215 71h-107v-645z" />
<glyph unicode="&#x10f;" horiz-adv-x="1859" d="M31 520.5q0 235.5 131 390t350 154.5q96 0 171 -28.5t103 -57.5l27 -27q-4 82 -4 164v297h461v-1413h-436l6 113q-106 -137 -328 -138q-219 0 -350 155t-131 390.5zM496 526q0 -84 48 -131t115 -47q70 0 117 47t47 131q0 86 -47 133.5t-116.5 47.5t-116.5 -48.5 t-47 -132.5zM1337 829l185 584h430l-236 -584h-379z" />
<glyph unicode="&#x110;" horiz-adv-x="1474" d="M0 573v287h102v553h533q365 0 563 -153q236 -180 236 -553t-236 -553q-199 -154 -563 -154h-533v573h-102zM563 389h107q143 0 215 72q82 82 82 246q0 178 -82 256q-72 72 -215 71h-107v-174h199v-276h-199v-195z" />
<glyph unicode="&#x111;" horiz-adv-x="1355" d="M31 520.5q0 235.5 131 390t350 154.5q96 0 171 -28.5t103 -57.5l27 -27q-4 82 -4 164v23h-399v204h399v70h461v-70h73v-204h-73v-1139h-436l6 113q-106 -137 -328 -138q-219 0 -350 155t-131 390.5zM496 526q0 -84 48 -131t115 -47q70 0 117 47t47 131q0 86 -47 133.5 t-116.5 47.5t-116.5 -48.5t-47 -132.5z" />
<glyph unicode="&#x112;" horiz-adv-x="1187" d="M102 0v1413h1004v-364h-543v-154h512v-363h-512v-163h563v-369h-1024zM236 1530v205h768v-205h-768z" />
<glyph unicode="&#x113;" horiz-adv-x="1202" d="M31 520q0 258 168 401.5t426 143.5q248 0 400.5 -142.5t152.5 -379.5l-7 -129h-686q20 -117 201 -117q164 0 287 82l174 -225q-4 -2 -10 -9q-205 -170 -519 -170q-258 0 -422.5 142.5t-164.5 402.5zM233 1161v205h768v-205h-768zM485 655h267q-4 55 -40 89t-94 34 q-55 0 -92 -34t-41 -89z" />
<glyph unicode="&#x114;" horiz-adv-x="1187" d="M102 0v1413h1004v-364h-543v-154h512v-363h-512v-163h563v-369h-1024zM223 1782h185q43 -102 204.5 -102.5t204.5 102.5h184q-23 -150 -126 -223.5t-262.5 -73.5t-263 73.5t-126.5 223.5z" />
<glyph unicode="&#x115;" horiz-adv-x="1202" d="M31 520q0 258 168 401.5t426 143.5q248 0 400.5 -142.5t152.5 -379.5l-7 -129h-686q20 -117 201 -117q164 0 287 82l174 -225q-4 -2 -10 -9q-205 -170 -519 -170q-258 0 -422.5 142.5t-164.5 402.5zM231 1413h185q43 -102 204.5 -102t204.5 102h185 q-23 -150 -126.5 -223.5t-263 -73.5t-263 73.5t-126.5 223.5zM485 655h267q-4 55 -40 89t-94 34q-55 0 -92 -34t-41 -89z" />
<glyph unicode="&#x116;" horiz-adv-x="1187" d="M102 0v1413h1004v-364h-543v-154h512v-363h-512v-163h563v-369h-1024zM459 1638.5q0 71.5 50 117.5t119.5 46t119 -46t49.5 -118q0 -74 -49.5 -122t-119 -48t-119.5 49.5t-50 121z" />
<glyph unicode="&#x117;" horiz-adv-x="1202" d="M31 520q0 258 168 401.5t426 143.5q248 0 400.5 -142.5t152.5 -379.5l-7 -129h-686q20 -117 201 -117q164 0 287 82l174 -225q-4 -2 -10 -9q-205 -170 -519 -170q-258 0 -422.5 142.5t-164.5 402.5zM449 1269.5q0 71.5 50 118t119.5 46.5t118.5 -46.5t49 -117.5 q0 -74 -49 -122t-118.5 -48t-119.5 49t-50 120.5zM485 655h267q-4 55 -40 89t-94 34q-55 0 -92 -34t-41 -89z" />
<glyph unicode="&#x118;" horiz-adv-x="1187" d="M102 0v1413h1004v-364h-543v-154h512v-363h-512v-163h563v-369h-153q-55 -29 -99.5 -72t-44.5 -92q0 -82 113 -82q72 0 133 41l51 -102q-14 -12 -38.5 -28.5t-94 -45.5t-133.5 -29q-117 0 -191.5 45.5t-74.5 139.5q0 143 143 225h-635z" />
<glyph unicode="&#x119;" horiz-adv-x="1202" d="M31 520q0 258 168 401.5t426 143.5q248 0 400.5 -142.5t152.5 -379.5l-7 -129h-686q20 -117 201 -117q164 0 287 82l174 -225q-2 -2 -15.5 -13.5t-20.5 -16.5l-25 -18q-17 -12 -30 -20l-35 -20q-22 -12 -43 -21l-47 -18q-26 -10 -55.5 -18.5t-62.5 -14.5 q-129 -72 -129 -158q0 -82 113 -82q72 0 133 41l51 -102q-14 -12 -38.5 -28.5t-94.5 -45.5t-133 -29q-117 0 -191.5 45.5t-74.5 139.5q0 123 108 202q-236 18 -381 158.5t-145 384.5zM485 655h267q-4 55 -40 89t-94 34q-55 0 -92 -34t-41 -89z" />
<glyph unicode="&#x11a;" horiz-adv-x="1187" d="M102 0v1413h1004v-364h-543v-154h512v-363h-512v-163h563v-369h-1024zM229 1782h297l99 -174l96 174h297l-164 -297h-461z" />
<glyph unicode="&#x11b;" horiz-adv-x="1202" d="M31 520q0 258 168 401.5t426 143.5q248 0 400.5 -142.5t152.5 -379.5l-7 -129h-686q20 -117 201 -117q164 0 287 82l174 -225q-4 -2 -10 -9q-205 -170 -519 -170q-258 0 -422.5 142.5t-164.5 402.5zM207 1413h297l98 -174l96 174h297l-164 -297h-460zM485 655h267 q-4 55 -40 89t-94 34q-55 0 -92 -34t-41 -89z" />
<glyph unicode="&#x11c;" horiz-adv-x="1515" d="M41 706.5q0 182.5 63.5 325t171 228.5t240.5 130t283 44q57 0 110.5 -6.5t96.5 -15.5t85 -24.5t72.5 -28.5t62 -32.5t52 -34t42 -34l32.5 -29.5l24 -25l17 -16l-308 -256q-123 123 -286 123q-127 0 -210 -92.5t-83 -256t83 -256t210 -92.5q74 0 122 13.5t60 25.5l12 13 v102h-215v342h666v-618l-77 -68q-26 -23 -92.5 -66t-125.5 -65.5t-155.5 -41t-205.5 -18.5q-145 0 -277 44.5t-238.5 131.5t-169 229t-62.5 324.5zM354 1485l164 297h461l164 -297h-297l-96 174l-99 -174h-297z" />
<glyph unicode="&#x11d;" horiz-adv-x="1355" d="M31 -225l174 286q66 -41 164 -71.5t184 -30.5q154 0 215 61q45 45 45 123v21q-100 -113 -301 -113q-199 0 -340 132t-141 374q0 244 141 376t340 132q193 0 301 -123l-4 102h461v-839q0 -295 -201 -451q-168 -133 -496 -133q-160 0 -306 44t-236 110zM266 1116l164 297 h461l164 -297h-297l-96 174l-99 -174h-297zM496 553q0 -70 47 -115t116.5 -45t116.5 45t47 115q0 68 -47 113t-116.5 45t-116.5 -45t-47 -113z" />
<glyph unicode="&#x11e;" horiz-adv-x="1515" d="M41 706.5q0 182.5 63.5 325t171 228.5t240.5 130t283 44q57 0 110.5 -6.5t96.5 -15.5t85 -24.5t72.5 -28.5t62 -32.5t52 -34t42 -34l32.5 -29.5l24 -25l17 -16l-308 -256q-123 123 -286 123q-127 0 -210 -92.5t-83 -256t83 -256t210 -92.5q74 0 122 13.5t60 25.5l12 13 v102h-215v342h666v-618l-77 -68q-26 -23 -92.5 -66t-125.5 -65.5t-155.5 -41t-205.5 -18.5q-145 0 -277 44.5t-238.5 131.5t-169 229t-62.5 324.5zM369 1782h184q43 -102 205 -102.5t205 102.5h184q-23 -150 -126 -223.5t-263 -73.5t-263 73.5t-126 223.5z" />
<glyph unicode="&#x11f;" horiz-adv-x="1355" d="M31 -225l174 286q66 -41 164 -71.5t184 -30.5q154 0 215 61q45 45 45 123v21q-100 -113 -301 -113q-199 0 -340 132t-141 374q0 244 141 376t340 132q193 0 301 -123l-4 102h461v-839q0 -295 -201 -451q-168 -133 -496 -133q-160 0 -306 44t-236 110zM268 1413h185 q43 -102 204.5 -102t204.5 102h185q-23 -150 -126.5 -223.5t-263 -73.5t-263 73.5t-126.5 223.5zM496 553q0 -70 47 -115t116.5 -45t116.5 45t47 115q0 68 -47 113t-116.5 45t-116.5 -45t-47 -113z" />
<glyph unicode="&#x120;" horiz-adv-x="1515" d="M41 706.5q0 182.5 63.5 325t171 228.5t240.5 130t283 44q57 0 110.5 -6.5t96.5 -15.5t85 -24.5t72.5 -28.5t62 -32.5t52 -34t42 -34l32.5 -29.5l24 -25l17 -16l-308 -256q-123 123 -286 123q-127 0 -210 -92.5t-83 -256t83 -256t210 -92.5q74 0 122 13.5t60 25.5l12 13 v102h-215v342h666v-618l-77 -68q-26 -23 -92.5 -66t-125.5 -65.5t-155.5 -41t-205.5 -18.5q-145 0 -277 44.5t-238.5 131.5t-169 229t-62.5 324.5zM588 1642.5q0 71.5 50 117.5t119.5 46t119 -46t49.5 -118q0 -74 -49.5 -121.5t-119 -47.5t-119.5 49t-50 120.5z" />
<glyph unicode="&#x121;" horiz-adv-x="1355" d="M31 -225l174 286q66 -41 164 -71.5t184 -30.5q154 0 215 61q45 45 45 123v21q-100 -113 -301 -113q-199 0 -340 132t-141 374q0 244 141 376t340 132q193 0 301 -123l-4 102h461v-839q0 -295 -201 -451q-168 -133 -496 -133q-160 0 -306 44t-236 110zM496 553 q0 -70 47 -115t116.5 -45t116.5 45t47 115q0 68 -47 113t-116.5 45t-116.5 -45t-47 -113zM508 1269.5q0 71.5 50 118t120 46.5t119 -46.5t49 -117.5q0 -74 -49 -122t-119 -48t-120 49t-50 120.5z" />
<glyph unicode="&#x122;" horiz-adv-x="1515" d="M41 706.5q0 182.5 63.5 325t171 228.5t240.5 130t283 44q57 0 110.5 -6.5t96.5 -15.5t85 -24.5t72.5 -28.5t62 -32.5t52 -34t42 -34l32.5 -29.5l24 -25l17 -16l-308 -256q-123 123 -286 123q-127 0 -210 -92.5t-83 -256t83 -256t210 -92.5q74 0 122 13.5t60 25.5l12 13 v102h-215v342h666v-618l-77 -68q-26 -23 -92.5 -66t-125.5 -65.5t-155.5 -41t-205.5 -18.5q-145 0 -277 44.5t-238.5 131.5t-169 229t-62.5 324.5zM528 -389l70 287h430l-127 -287h-373z" />
<glyph unicode="&#x123;" horiz-adv-x="1355" d="M31 -225l174 286q66 -41 164 -71.5t184 -30.5q154 0 215 61q45 45 45 123v21q-100 -113 -301 -113q-199 0 -340 132t-141 374q0 244 141 376t340 132q193 0 301 -123l-4 102h461v-839q0 -295 -201 -451q-168 -133 -496 -133q-160 0 -306 44t-236 110zM397 1202l127 287 h373l-70 -287h-430zM496 553q0 -70 47 -115t116.5 -45t116.5 45t47 115q0 68 -47 113t-116.5 45t-116.5 -45t-47 -113z" />
<glyph unicode="&#x124;" horiz-adv-x="1515" d="M102 0v1413h463v-512h385v512h463v-1413h-463v522h-385v-522h-463zM362 1485l164 297h461l164 -297h-297l-96 174l-99 -174h-297z" />
<glyph unicode="&#x125;" horiz-adv-x="1290" d="M-88 1554l164 297h461l163 -297h-297l-96 175l-98 -175h-297zM86 0v1413h461v-307l-4 -195q96 154 291 154q215 0 302 -119t87 -332v-614h-461v512q0 90 -20.5 135t-86.5 45q-68 0 -88 -45t-20 -135v-512h-461z" />
<glyph unicode="&#x126;" horiz-adv-x="1515" d="M10 1071v205h92v137h463v-137h385v137h463v-137h92v-205h-92v-1071h-463v522h-385v-522h-463v1071h-92zM565 901h385v170h-385v-170z" />
<glyph unicode="&#x127;" horiz-adv-x="1290" d="M10 1139v204h76v70h461v-70h397v-204h-397v-33l-4 -195q96 154 291 154q215 0 302 -119t87 -332v-614h-461v512q0 90 -20.5 135t-86.5 45q-68 0 -88 -45t-20 -135v-512h-461v1139h-76z" />
<glyph unicode="&#x128;" horiz-adv-x="667" d="M-86 1505q0 111 82 196t194 85q92 0 168 -45q84 -47 113 -47q70 0 98 88l185 -21q0 -111 -82 -196.5t-195 -85.5q-86 0 -170 47q-76 45 -112 45q-68 0 -97 -86zM102 0v1413h463v-1413h-463z" />
<glyph unicode="&#x129;" horiz-adv-x="624" d="M-106 1137q0 111 81.5 195.5t194.5 84.5q92 0 168 -45q84 -47 113 -47q70 0 98 88l184 -20q0 -111 -82 -197t-194 -86q-86 0 -170 47q-76 45 -113 45q-68 0 -96 -86zM82 0v1044h461v-1044h-461z" />
<glyph unicode="&#x12a;" horiz-adv-x="667" d="M-49 1530v205h768v-205h-768zM102 0v1413h463v-1413h-463z" />
<glyph unicode="&#x12b;" horiz-adv-x="624" d="M-72 1161v205h768v-205h-768zM82 0v1044h461v-1044h-461z" />
<glyph unicode="&#x12c;" horiz-adv-x="667" d="M-55 1782h184q43 -102 205 -102.5t205 102.5h184q-23 -150 -126 -223.5t-263 -73.5t-263 73.5t-126 223.5zM102 0v1413h463v-1413h-463z" />
<glyph unicode="&#x12d;" horiz-adv-x="624" d="M-76 1413h185q43 -102 204.5 -102t204.5 102h184q-23 -150 -126 -223.5t-262.5 -73.5t-263 73.5t-126.5 223.5zM82 0v1044h461v-1044h-461z" />
<glyph unicode="&#x12e;" horiz-adv-x="667" d="M92 -225q0 143 144 225h-134v1413h463v-1413h-94q-57 -29 -100 -72t-43 -92q0 -82 112 -82q72 0 133 41l52 -102q-14 -12 -39 -28.5t-94.5 -45.5t-133.5 -29q-117 0 -191.5 45.5t-74.5 139.5z" />
<glyph unicode="&#x12f;" horiz-adv-x="624" d="M66 1300.5q0 100.5 67.5 160t177.5 59.5q113 0 179.5 -59.5t66.5 -160t-66.5 -160t-179.5 -59.5q-111 0 -178 59.5t-67 160zM82 0v1044h461v-1044h-76q-57 -29 -100 -72t-43 -92q0 -82 112 -82q72 0 133 41l52 -102q-14 -12 -39 -28.5t-94.5 -45.5t-133.5 -29 q-117 0 -191.5 45.5t-74.5 139.5q0 143 143 225h-149z" />
<glyph unicode="&#x130;" horiz-adv-x="667" d="M102 0v1413h463v-1413h-463zM166 1638.5q0 71.5 50 117.5t120 46t119 -46t49 -118q0 -74 -49 -122t-119 -48t-120 49.5t-50 121z" />
<glyph unicode="&#x131;" horiz-adv-x="624" d="M82 0v1044h461v-1044h-461z" />
<glyph unicode="&#x132;" horiz-adv-x="1333" d="M102 0v1413h463v-1413h-463zM565 -344l21 334q61 -20 112 -21q35 0 53.5 16.5t18.5 65.5v1362h461v-1362q0 -225 -100.5 -327.5t-299.5 -102.5q-80 0 -160.5 11.5t-105.5 23.5z" />
<glyph unicode="&#x133;" horiz-adv-x="1249" d="M66 1300.5q0 100.5 67.5 160t177.5 59.5q113 0 179.5 -59.5t66.5 -160t-66.5 -160t-179.5 -59.5q-111 0 -178 59.5t-67 160zM82 0v1044h461v-1044h-461zM532 -358l11 348q31 -10 82 -10q43 0 62.5 19t19.5 77v968h460v-993q0 -227 -108 -327q-109 -102 -318 -103z M690 1300.5q0 100.5 67.5 160t178.5 59.5q113 0 179.5 -59.5t66.5 -160t-66.5 -160t-179.5 -59.5q-111 0 -178.5 59.5t-67.5 160z" />
<glyph unicode="&#x134;" horiz-adv-x="665" d="M-102 -344l20 334q61 -20 113 -21q35 0 53 16.5t18 65.5v1362h461v-1362q0 -225 -100.5 -327.5t-298.5 -102.5q-80 0 -160.5 11.5t-105.5 23.5zM-61 1485l163 297h461l164 -297h-297l-96 174l-98 -174h-297z" />
<glyph unicode="&#x135;" horiz-adv-x="624" d="M-92 -358l10 348q31 -10 82 -10q43 0 62.5 19t19.5 77v968h461v-993q0 -227 -109 -327q-109 -102 -317 -103zM-82 1116l164 297h461l164 -297h-297l-97 174l-98 -174h-297z" />
<glyph unicode="&#x136;" horiz-adv-x="1392" d="M102 0v1413h461v-430l297 430h543l-457 -569l488 -844h-553l-236 471l-82 -102v-369h-461zM461 -389l69 287h431l-127 -287h-373z" />
<glyph unicode="&#x137;" horiz-adv-x="1259" d="M86 0v1413h461v-645l221 276h522l-358 -389l368 -655h-522l-164 317l-67 -71v-246h-461zM403 -389l70 287h430l-127 -287h-373z" />
<glyph unicode="&#x138;" horiz-adv-x="1255" d="M82 0v1044h461v-276l221 276h522l-358 -389l368 -655h-522l-164 317l-67 -71v-246h-461z" />
<glyph unicode="&#x139;" horiz-adv-x="1064" d="M102 0v1413h461v-1034h481v-379h-942zM166 1554l143 297h369l-195 -297h-317z" />
<glyph unicode="&#x13a;" horiz-adv-x="634" d="M86 0v1413h461v-1413h-461zM139 1556l144 297h368l-194 -297h-318z" />
<glyph unicode="&#x13b;" horiz-adv-x="1064" d="M102 0v1413h461v-1034h481v-379h-942zM319 -389l70 287h430l-127 -287h-373z" />
<glyph unicode="&#x13c;" horiz-adv-x="634" d="M68 -389l69 287h430l-127 -287h-372zM86 0v1413h461v-1413h-461z" />
<glyph unicode="&#x13d;" horiz-adv-x="1161" d="M102 0v1413h461v-1034h481v-379h-942zM639 829l184 584h430l-235 -584h-379z" />
<glyph unicode="&#x13e;" horiz-adv-x="1136" d="M86 0v1413h461v-1413h-461zM614 829l185 584h430l-236 -584h-379z" />
<glyph unicode="&#x13f;" horiz-adv-x="1247" d="M102 0v1413h461v-1034h481v-379h-942zM715 791q0 98 66.5 158.5t179.5 60.5q111 0 178 -60.5t67 -158.5q0 -100 -67.5 -161t-177.5 -61q-113 0 -179.5 61t-66.5 161z" />
<glyph unicode="&#x140;" horiz-adv-x="1249" d="M86 0v1413h461v-1413h-461zM670 600q0 98 66.5 158.5t178.5 60.5q111 0 178.5 -60.5t67.5 -158.5q0 -100 -67.5 -160.5t-178.5 -60.5q-113 0 -179 60.5t-66 160.5z" />
<glyph unicode="&#x141;" horiz-adv-x="1064" d="M31 328v327l71 52v706h461v-399l195 143v-328l-195 -143v-307h481v-379h-942v379z" />
<glyph unicode="&#x142;" horiz-adv-x="645" d="M10 379v317l82 62v655h461v-307l82 61v-317l-82 -62v-788h-461v440z" />
<glyph unicode="&#x143;" horiz-adv-x="1556" d="M102 0v1413h502l410 -788q-10 154 -10 256v532h450v-1413h-481l-430 788q10 -154 10 -256v-532h-451zM580 1485l143 297h369l-195 -297h-317z" />
<glyph unicode="&#x144;" horiz-adv-x="1294" d="M82 0v1044h461l-6 -133q106 154 292 154q215 0 302.5 -119t87.5 -332v-614h-461v512q0 90 -20.5 135t-88.5 45q-66 0 -86 -45t-20 -135v-512h-461zM408 1116l143 297h369l-195 -297h-317z" />
<glyph unicode="&#x145;" horiz-adv-x="1556" d="M102 0v1413h502l410 -788q-10 154 -10 256v532h450v-1413h-481l-430 788q10 -154 10 -256v-532h-451zM520 -389l70 287h430l-127 -287h-373z" />
<glyph unicode="&#x146;" horiz-adv-x="1294" d="M82 0v1044h461l-6 -133q106 154 292 154q215 0 302.5 -119t87.5 -332v-614h-461v512q0 90 -20.5 135t-88.5 45q-66 0 -86 -45t-20 -135v-512h-461zM401 -389l70 287h430l-127 -287h-373z" />
<glyph unicode="&#x147;" horiz-adv-x="1556" d="M102 0v1413h502l410 -788q-10 154 -10 256v532h450v-1413h-481l-430 788q10 -154 10 -256v-532h-451zM383 1782h297l98 -174l96 174h297l-163 -297h-461z" />
<glyph unicode="&#x148;" horiz-adv-x="1294" d="M82 0v1044h461l-6 -133q106 154 292 154q215 0 302.5 -119t87.5 -332v-614h-461v512q0 90 -20.5 135t-88.5 45q-66 0 -86 -45t-20 -135v-512h-461zM240 1413h297l98 -174l96 174h297l-164 -297h-461z" />
<glyph unicode="&#x14a;" horiz-adv-x="1556" d="M102 0v1413h502l410 -788q-10 154 -10 256v532h450v-1362q0 -225 -100.5 -327.5t-298.5 -102.5q-80 0 -161 11.5t-106 23.5l21 334q61 -20 113 -21q39 0 63 13l-442 806q10 -154 10 -256v-532h-451z" />
<glyph unicode="&#x14b;" horiz-adv-x="1294" d="M82 0v1044h461l-6 -133q106 154 292 154q215 0 302.5 -119t87.5 -332v-563q0 -227 -109 -327q-109 -102 -317 -103l-209 21l10 348q31 -10 82 -10q43 0 62.5 19t19.5 77v436q0 90 -20.5 135t-88.5 45q-66 0 -86 -45t-20 -135v-512h-461z" />
<glyph unicode="&#x14c;" horiz-adv-x="1617" d="M41 704.5q0 337.5 215 534.5t553 197t553 -197t215 -534.5t-215 -533.5t-553 -196t-553 196t-215 533.5zM424 1530v205h768v-205h-768zM506 714.5q0 -147.5 83 -238.5t220 -91t219 91t82 238.5t-82 238.5t-219 91t-220 -91t-83 -238.5z" />
<glyph unicode="&#x14d;" horiz-adv-x="1269" d="M31 520q0 256 168 400.5t436 144.5t436 -144.5t168 -400.5t-168 -400.5t-436 -144.5t-436 144.5t-168 400.5zM250 1161v205h768v-205h-768zM492 526q0 -82 37.5 -130t105 -48t105.5 48t38 130t-38 131.5t-105.5 49.5t-105 -49.5t-37.5 -131.5z" />
<glyph unicode="&#x14e;" horiz-adv-x="1617" d="M41 704.5q0 337.5 215 534.5t553 197t553 -197t215 -534.5t-215 -533.5t-553 -196t-553 196t-215 533.5zM420 1782h184q43 -102 205 -102.5t205 102.5h184q-23 -150 -126 -223.5t-263 -73.5t-263 73.5t-126 223.5zM506 714.5q0 -147.5 83 -238.5t220 -91t219 91t82 238.5 t-82 238.5t-219 91t-220 -91t-83 -238.5z" />
<glyph unicode="&#x14f;" horiz-adv-x="1269" d="M31 520q0 256 168 400.5t436 144.5t436 -144.5t168 -400.5t-168 -400.5t-436 -144.5t-436 144.5t-168 400.5zM246 1413h184q43 -102 205 -102t205 102h184q-23 -150 -126 -223.5t-263 -73.5t-263 73.5t-126 223.5zM492 526q0 -82 37.5 -130t105 -48t105.5 48t38 130 t-38 131.5t-105.5 49.5t-105 -49.5t-37.5 -131.5z" />
<glyph unicode="&#x150;" horiz-adv-x="1617" d="M41 704.5q0 337.5 215 534.5t553 197t553 -197t215 -534.5t-215 -533.5t-553 -196t-553 196t-215 533.5zM399 1485l154 297h358l-204 -297h-308zM506 714.5q0 -147.5 83 -238.5t220 -91t219 91t82 238.5t-82 238.5t-219 91t-220 -91t-83 -238.5zM850 1485l154 297h358 l-205 -297h-307z" />
<glyph unicode="&#x151;" horiz-adv-x="1269" d="M31 520q0 256 168 400.5t436 144.5t436 -144.5t168 -400.5t-168 -400.5t-436 -144.5t-436 144.5t-168 400.5zM201 1116l153 297h359l-205 -297h-307zM492 526q0 -82 37.5 -130t105 -48t105.5 48t38 130t-38 131.5t-105.5 49.5t-105 -49.5t-37.5 -131.5zM651 1116l154 297 h358l-205 -297h-307z" />
<glyph unicode="&#x152;" horiz-adv-x="2017" d="M41 704.5q0 337.5 215 534.5t553 197q115 0 205 -23h921v-364h-491v-154h461v-363h-461v-163h512v-369h-932q-74 -25 -215 -25q-338 0 -553 196t-215 533.5zM506 714.5q0 -147.5 83 -238.5t220 -91q104 0 174 35v594q-61 31 -174 30q-137 0 -220 -91t-83 -238.5z" />
<glyph unicode="&#x153;" horiz-adv-x="1939" d="M31 520q0 256 168 400.5t436 144.5q223 0 369 -102q145 102 358 102q248 0 400.5 -142.5t152.5 -379.5l-6 -129h-686q20 -117 200 -117q164 0 287 82l174 -225q-4 -2 -10 -9q-205 -170 -518 -170q-231 0 -359 101q-137 -100 -362 -101q-268 0 -436 144.5t-168 400.5z M492 526q0 -82 37.5 -130t105 -48t105.5 48t38 130t-38 131.5t-105.5 49.5t-105 -49.5t-37.5 -131.5zM1223 655h266q-4 55 -40 89t-93 34q-55 0 -92 -34t-41 -89z" />
<glyph unicode="&#x154;" horiz-adv-x="1351" d="M102 0v1413h615q264 0 409 -102q174 -123 174 -348q0 -285 -235 -426l317 -537h-532l-225 471h-60v-471h-463zM420 1485l143 297h369l-195 -297h-317zM563 819h117q72 0 102 25q51 37 51.5 98.5t-51.5 95.5q-33 27 -102 27h-117v-246z" />
<glyph unicode="&#x155;" horiz-adv-x="901" d="M82 0v1044h461l-6 -133q92 154 262 154q33 0 58.5 -5t35.5 -11l8 -5l-20 -419h-21q-61 31 -133 30q-94 0 -143 -67q-41 -53 -41 -178v-410h-461zM274 1116l144 297h368l-194 -297h-318z" />
<glyph unicode="&#x156;" horiz-adv-x="1351" d="M102 0v1413h615q264 0 409 -102q174 -123 174 -348q0 -285 -235 -426l317 -537h-532l-225 471h-60v-471h-463zM442 -389l70 287h430l-127 -287h-373zM563 819h117q72 0 102 25q51 37 51.5 98.5t-51.5 95.5q-33 27 -102 27h-117v-246z" />
<glyph unicode="&#x157;" horiz-adv-x="901" d="M74 -389l69 287h430l-127 -287h-372zM82 0v1044h461l-6 -133q92 154 262 154q33 0 58.5 -5t35.5 -11l8 -5l-20 -419h-21q-61 31 -133 30q-94 0 -143 -67q-41 -53 -41 -178v-410h-461z" />
<glyph unicode="&#x158;" horiz-adv-x="1351" d="M102 0v1413h615q264 0 409 -102q174 -123 174 -348q0 -285 -235 -426l317 -537h-532l-225 471h-60v-471h-463zM260 1782h297l98 -174l97 174h297l-164 -297h-461zM563 819h117q72 0 102 25q51 37 51.5 98.5t-51.5 95.5q-33 27 -102 27h-117v-246z" />
<glyph unicode="&#x159;" horiz-adv-x="901" d="M82 0v1044h461l-6 -133q92 154 262 154q33 0 58.5 -5t35.5 -11l8 -5l-20 -419h-21q-61 31 -133 30q-94 0 -143 -67q-41 -53 -41 -178v-410h-461zM84 1413h297l98 -174l96 174h297l-163 -297h-461z" />
<glyph unicode="&#x15a;" horiz-adv-x="1167" d="M0 164l205 348q88 -74 201.5 -114t175.5 -40q104 0 104 60q0 18 -17.5 33.5t-34 22.5t-50.5 18q-88 25 -205 65q-137 55 -195 105q-129 111 -129 301q0 207 164 342q147 123 416 122q139 0 275.5 -46t228.5 -124l-176 -327q-74 63 -172.5 99t-163.5 36q-115 0 -115 -57 q0 -8 3 -15.5t11.5 -13.5l14.5 -10t17 -9.5t17.5 -7.5l19.5 -6t15 -4q6 -2 73 -21.5t95 -29.5q158 -53 236 -119q133 -115 133 -307q0 -225 -184 -369q-158 -121 -418 -121q-291 1 -545 189zM389 1485l143 297h369l-194 -297h-318z" />
<glyph unicode="&#x15b;" horiz-adv-x="997" d="M8 119l156 270q66 -43 145.5 -69.5t124.5 -33.5t70 -7q59 0 59 32q0 10 -12 20.5t-38 19.5l-43 16q-17 6 -48 14t-33 8q-72 20 -123 41q-195 68 -194 287q0 160 123.5 255t316.5 95q254 0 442 -121l-125 -258q-158 98 -301 98q-57 0 -57 -34q0 -25 113 -56 q119 -35 147 -47q96 -39 150 -92q86 -86 86 -229q0 -160 -138 -262q-123 -92 -337 -93q-294 1 -484 146zM293 1116l143 297h369l-195 -297h-317z" />
<glyph unicode="&#x15c;" horiz-adv-x="1167" d="M0 164l205 348q88 -74 201.5 -114t175.5 -40q104 0 104 60q0 18 -17.5 33.5t-34 22.5t-50.5 18q-88 25 -205 65q-137 55 -195 105q-129 111 -129 301q0 207 164 342q147 123 416 122q139 0 275.5 -46t228.5 -124l-176 -327q-74 63 -172.5 99t-163.5 36q-115 0 -115 -57 q0 -8 3 -15.5t11.5 -13.5l14.5 -10t17 -9.5t17.5 -7.5l19.5 -6t15 -4q6 -2 73 -21.5t95 -29.5q158 -53 236 -119q133 -115 133 -307q0 -225 -184 -369q-158 -121 -418 -121q-291 1 -545 189zM205 1485l164 297h460l164 -297h-297l-96 174l-98 -174h-297z" />
<glyph unicode="&#x15d;" horiz-adv-x="997" d="M8 119l156 270q66 -43 145.5 -69.5t124.5 -33.5t70 -7q59 0 59 32q0 10 -12 20.5t-38 19.5l-43 16q-17 6 -48 14t-33 8q-72 20 -123 41q-195 68 -194 287q0 160 123.5 255t316.5 95q254 0 442 -121l-125 -258q-158 98 -301 98q-57 0 -57 -34q0 -25 113 -56 q119 -35 147 -47q96 -39 150 -92q86 -86 86 -229q0 -160 -138 -262q-123 -92 -337 -93q-294 1 -484 146zM109 1116l163 297h461l164 -297h-297l-96 174l-98 -174h-297z" />
<glyph unicode="&#x15e;" horiz-adv-x="1167" d="M0 164l205 348q88 -74 201.5 -114t175.5 -40q104 0 104 60q0 18 -17.5 33.5t-34 22.5t-50.5 18q-88 25 -205 65q-137 55 -195 105q-129 111 -129 301q0 207 164 342q147 123 416 122q139 0 275.5 -46t228.5 -124l-176 -327q-74 63 -172.5 99t-163.5 36q-115 0 -115 -57 q0 -8 3 -15.5t11.5 -13.5l14.5 -10t17 -9.5t17.5 -7.5l19.5 -6t15 -4q6 -2 73 -21.5t95 -29.5q158 -53 236 -119q133 -115 133 -307q0 -225 -184 -369q-70 -51 -152 -82l-141 -301h-318l158 262q-272 11 -510 189z" />
<glyph unicode="&#x15f;" horiz-adv-x="997" d="M8 119l156 270q66 -43 145.5 -69.5t124.5 -33.5t70 -7q59 0 59 32q0 10 -12 20.5t-38 19.5l-43 16q-17 6 -48 14t-33 8q-72 20 -123 41q-195 68 -194 287q0 160 123.5 255t316.5 95q254 0 442 -121l-125 -258q-158 98 -301 98q-57 0 -57 -34q0 -25 113 -56 q119 -35 147 -47q96 -39 150 -92q86 -86 86 -229q0 -160 -138 -262q-53 -41 -108 -60l-139 -297h-318l160 266q-250 15 -416 144z" />
<glyph unicode="&#x160;" horiz-adv-x="1167" d="M0 164l205 348q88 -74 201.5 -114t175.5 -40q104 0 104 60q0 18 -17.5 33.5t-34 22.5t-50.5 18q-88 25 -205 65q-137 55 -195 105q-129 111 -129 301q0 207 164 342q147 123 416 122q139 0 275.5 -46t228.5 -124l-176 -327q-74 63 -172.5 99t-163.5 36q-115 0 -115 -57 q0 -8 3 -15.5t11.5 -13.5l14.5 -10t17 -9.5t17.5 -7.5l19.5 -6t15 -4q6 -2 73 -21.5t95 -29.5q158 -53 236 -119q133 -115 133 -307q0 -225 -184 -369q-158 -121 -418 -121q-291 1 -545 189zM240 1772h297l98 -175l96 175h297l-164 -297h-461z" />
<glyph unicode="&#x161;" horiz-adv-x="997" d="M8 119l156 270q66 -43 145.5 -69.5t124.5 -33.5t70 -7q59 0 59 32q0 10 -12 20.5t-38 19.5l-43 16q-17 6 -48 14t-33 8q-72 20 -123 41q-195 68 -194 287q0 160 123.5 255t316.5 95q254 0 442 -121l-125 -258q-158 98 -301 98q-57 0 -57 -34q0 -25 113 -56 q119 -35 147 -47q96 -39 150 -92q86 -86 86 -229q0 -160 -138 -262q-123 -92 -337 -93q-294 1 -484 146zM117 1413h297l98 -174l96 174h297l-164 -297h-460z" />
<glyph unicode="&#x162;" horiz-adv-x="1128" d="M0 1053v360h1128v-360h-333v-1053h-463v1053h-332zM313 -389l70 287h430l-127 -287h-373z" />
<glyph unicode="&#x163;" horiz-adv-x="829" d="M0 707v337h143v256h461v-256h215v-337h-215v-287q0 -43 19.5 -57.5t62.5 -14.5q23 0 48.5 4t39.5 8l14 2l21 -352q-139 -35 -287 -35q-186 0 -286 91q-92 86 -93 303v338h-143zM225 -389l70 287h430l-127 -287h-373z" />
<glyph unicode="&#x164;" horiz-adv-x="1128" d="M0 1053v360h1128v-360h-333v-1053h-463v1053h-332zM170 1782h297l98 -174l97 174h296l-163 -297h-461z" />
<glyph unicode="&#x165;" horiz-adv-x="829" d="M0 707v337h143v256h461v-256h215v-337h-215v-287q0 -43 19.5 -57.5t62.5 -14.5q23 0 48.5 4t39.5 8l14 2l21 -352q-139 -35 -287 -35q-186 0 -286 91q-92 86 -93 303v338h-143zM684 1126l184 584h430l-235 -584h-379z" />
<glyph unicode="&#x166;" horiz-adv-x="1128" d="M0 1053v360h1128v-360h-333v-265h153v-266h-153v-522h-463v522h-152v266h152v265h-332z" />
<glyph unicode="&#x167;" horiz-adv-x="829" d="M0 707v337h143v256h461v-256h215v-337h-215v-80h195v-164h-195v-43q0 -43 19.5 -57.5t62.5 -14.5q23 0 48.5 4t39.5 8l14 2l21 -352q-139 -35 -287 -35q-186 0 -286 91q-92 86 -93 303v94h-112v164h112v80h-143z" />
<glyph unicode="&#x168;" horiz-adv-x="1474" d="M92 604v809h465v-829q0 -106 47 -154q51 -51 133 -51t133 51q45 45 45 154v829h467v-809q0 -307 -153 -461q-166 -166 -491.5 -166t-491.5 166q-154 154 -154 461zM317 1505q0 111 82 196t195 85q92 0 168 -45q84 -47 112 -47q70 0 99 88l184 -21q0 -111 -82 -196.5 t-194 -85.5q-86 0 -170 47q-76 45 -113 45q-68 0 -96 -86z" />
<glyph unicode="&#x169;" horiz-adv-x="1273" d="M76 410v634h461v-552q0 -139 98 -140q96 0 96 140v552h461v-1044h-440l-4 92q-117 -117 -287 -117q-217 0 -307 127q-78 109 -78 308zM217 1137q0 111 82 195.5t195 84.5q92 0 168 -45q84 -47 112 -47q70 0 98 88l185 -20q0 -111 -82 -197t-195 -86q-86 0 -170 47 q-76 45 -112 45q-68 0 -97 -86z" />
<glyph unicode="&#x16a;" horiz-adv-x="1474" d="M92 604v809h465v-829q0 -106 47 -154q51 -51 133 -51t133 51q45 45 45 154v829h467v-809q0 -307 -153 -461q-166 -166 -491.5 -166t-491.5 166q-154 154 -154 461zM352 1530v205h768v-205h-768z" />
<glyph unicode="&#x16b;" horiz-adv-x="1273" d="M76 410v634h461v-552q0 -139 98 -140q96 0 96 140v552h461v-1044h-440l-4 92q-117 -117 -287 -117q-217 0 -307 127q-78 109 -78 308zM252 1161v205h768v-205h-768z" />
<glyph unicode="&#x16c;" horiz-adv-x="1474" d="M92 604v809h465v-829q0 -106 47 -154q51 -51 133 -51t133 51q45 45 45 154v829h467v-809q0 -307 -153 -461q-166 -166 -491.5 -166t-491.5 166q-154 154 -154 461zM348 1782h184q43 -102 205 -102.5t205 102.5h184q-23 -150 -126 -223.5t-262.5 -73.5t-263 73.5 t-126.5 223.5z" />
<glyph unicode="&#x16d;" horiz-adv-x="1273" d="M76 410v634h461v-552q0 -139 98 -140q96 0 96 140v552h461v-1044h-440l-4 92q-117 -117 -287 -117q-217 0 -307 127q-78 109 -78 308zM248 1413h184q43 -102 205 -102t205 102h184q-23 -150 -126 -223.5t-263 -73.5t-263 73.5t-126 223.5z" />
<glyph unicode="&#x16e;" horiz-adv-x="1474" d="M92 604v809h465v-829q0 -106 47 -154q51 -51 133 -51t133 51q45 45 45 154v829h467v-809q0 -307 -153 -461q-166 -166 -491.5 -166t-491.5 166q-154 154 -154 461zM471 1699.5q0 110.5 76 168t190.5 57.5t190.5 -57.5t76 -168t-76 -167.5t-190.5 -57t-190.5 57t-76 167.5 zM635 1700q0 -92 102.5 -92t102.5 92t-102.5 92t-102.5 -92z" />
<glyph unicode="&#x16f;" horiz-adv-x="1273" d="M76 410v634h461v-552q0 -139 98 -140q96 0 96 140v552h461v-1044h-440l-4 92q-117 -117 -287 -117q-217 0 -307 127q-78 109 -78 308zM371 1331.5q0 110.5 75.5 167.5t190.5 57t190.5 -57t75.5 -167.5t-75.5 -168t-190.5 -57.5t-190.5 57.5t-75.5 168zM535 1331 q0 -92 102 -92t102 92t-102 92t-102 -92z" />
<glyph unicode="&#x170;" horiz-adv-x="1474" d="M92 604v809h465v-829q0 -106 47 -154q51 -51 133 -51t133 51q45 45 45 154v829h467v-809q0 -307 -153 -461q-166 -166 -491.5 -166t-491.5 166q-154 154 -154 461zM338 1485l154 297h358l-205 -297h-307zM788 1485l154 297h358l-204 -297h-308z" />
<glyph unicode="&#x171;" horiz-adv-x="1273" d="M76 410v634h461v-552q0 -139 98 -140q96 0 96 140v552h461v-1044h-440l-4 92q-117 -117 -287 -117q-217 0 -307 127q-78 109 -78 308zM217 1116l154 297h358l-205 -297h-307zM668 1116l153 297h359l-205 -297h-307z" />
<glyph unicode="&#x172;" horiz-adv-x="1474" d="M92 604v809h465v-829q0 -106 47 -154q51 -51 133 -51t133 51q45 45 45 154v829h467v-809q0 -307 -153 -461q-121 -121 -328 -153q-123 -70 -123 -154q0 -82 113 -82q72 0 133 41l51 -102q-14 -12 -38.5 -28.5t-94.5 -45.5t-133 -29q-117 0 -191.5 45.5t-74.5 139.5 q0 127 112 207q-266 18 -409 161q-154 154 -154 461z" />
<glyph unicode="&#x173;" horiz-adv-x="1273" d="M76 410v634h461v-552q0 -139 98 -140q96 0 96 140v552h461v-1044h-113q-55 -29 -99 -72t-44 -92q0 -82 113 -82q72 0 133 41l51 -102q-14 -12 -39 -28.5t-94.5 -45.5t-132.5 -29q-117 0 -192 45.5t-75 139.5q0 143 144 225h-92l-4 92q-117 -117 -287 -117 q-217 0 -307 127q-78 109 -78 308z" />
<glyph unicode="&#x174;" horiz-adv-x="2078" d="M-20 1413h481l174 -788l174 788h461l174 -788l174 788h481l-399 -1413h-471l-191 799l-188 -799h-471zM645 1485l164 297h461l164 -297h-297l-97 174l-98 -174h-297z" />
<glyph unicode="&#x175;" horiz-adv-x="1812" d="M-10 1044h461l133 -552l133 552h379l133 -552l133 552h461l-338 -1044h-441l-139 512l-137 -512h-440zM512 1116l164 297h461l163 -297h-296l-97 174l-98 -174h-297z" />
<glyph unicode="&#x176;" d="M-41 1413h512l209 -477l211 477h512l-492 -860v-553h-462v553zM287 1485l164 297h460l164 -297h-297l-96 174l-98 -174h-297z" />
<glyph unicode="&#x177;" horiz-adv-x="1249" d="M-20 1044h481l168 -542l170 542h471l-430 -1064q-72 -178 -156 -268.5t-244 -90.5q-104 0 -199.5 15.5t-138.5 31.5l-41 15l93 327q61 -31 143 -30q41 0 62.5 12t29.5 49zM229 1116l164 297h461l164 -297h-297l-96 174l-99 -174h-297z" />
<glyph unicode="&#x178;" d="M-41 1413h512l209 -477l211 477h512l-492 -860v-553h-462v553zM299 1618q0 72 48 118t122 46q72 0 120 -46t48 -118q0 -74 -47 -119t-121 -45t-122 45t-48 119zM725 1618q0 72 48 118t120 46q74 0 122 -46t48 -118q0 -74 -48 -119t-122 -45t-121 45t-47 119z" />
<glyph unicode="&#x179;" horiz-adv-x="1351" d="M61 0v328l615 716h-594v369h1188v-317l-615 -717h645v-379h-1239zM471 1485l143 297h369l-195 -297h-317z" />
<glyph unicode="&#x17a;" horiz-adv-x="1095" d="M20 0v256l451 451h-430v337h1014v-245l-441 -441h461v-358h-1055zM342 1116l143 297h369l-195 -297h-317z" />
<glyph unicode="&#x17b;" horiz-adv-x="1351" d="M61 0v328l615 716h-594v369h1188v-317l-615 -717h645v-379h-1239zM506 1638.5q0 71.5 50 117.5t119.5 46t119 -46t49.5 -118q0 -74 -49.5 -122t-119 -48t-119.5 49.5t-50 121z" />
<glyph unicode="&#x17c;" horiz-adv-x="1095" d="M20 0v256l451 451h-430v337h1014v-245l-441 -441h461v-358h-1055zM379 1269.5q0 71.5 50 118t119.5 46.5t119 -46.5t49.5 -117.5q0 -74 -49.5 -122t-119 -48t-119.5 49t-50 120.5z" />
<glyph unicode="&#x17d;" horiz-adv-x="1351" d="M61 0v328l615 716h-594v369h1188v-317l-615 -717h645v-379h-1239zM281 1772h297l98 -175l96 175h297l-164 -297h-461z" />
<glyph unicode="&#x17e;" horiz-adv-x="1095" d="M20 0v256l451 451h-430v337h1014v-245l-441 -441h461v-358h-1055zM154 1413h297l96 -174l98 174h297l-164 -297h-461z" />
<glyph unicode="&#x192;" d="M92 -225l103 327q51 -20 92 -20q55 0 80.5 44t42.5 130l75 399h-194l57 297h195q0 4 9 61.5t12 74t13.5 64.5t18.5 72.5t21.5 58.5t27.5 58q100 168 328 168q162 0 297 -75l-92 -308q-61 31 -113 31q-80 0 -102 -123l-17 -82h211l-57 -297h-209l-92 -501 q-43 -227 -152.5 -328.5t-329.5 -101.5q-123 0 -225 51z" />
<glyph unicode="&#x1fc;" horiz-adv-x="2017" d="M-92 0l840 1413h1187v-364h-481v-154h451v-363h-451v-163h502v-369h-963v199h-456l-107 -199h-522zM725 553h268v502zM1112 1485l143 297h369l-194 -297h-318z" />
<glyph unicode="&#x1fd;" horiz-adv-x="1837" d="M25 317q0 74 28.5 131.5t71.5 91t100.5 56t107.5 32t101 11.5l242 10v10q0 98 -170 99q-166 0 -328 -92l-112 290q236 109 501 109q258 0 369 -82q135 82 324 82q248 0 400 -142.5t152 -379.5l-6 -129h-686q20 -117 201 -117q164 0 287 82l174 -225q-4 -2 -10 -9 q-205 -170 -519 -170q-264 0 -409 138q-88 -76 -181.5 -107t-238.5 -31q-166 0 -282.5 82t-116.5 260zM485 338q0 -82 103 -82q61 0 123 41q-23 47 -35 129l-88 -6q-103 -8 -103 -82zM745 1116l144 297h368l-194 -297h-318zM1120 655h266q-4 55 -39.5 89t-93.5 34 q-55 0 -92 -34t-41 -89z" />
<glyph unicode="&#x1fe;" horiz-adv-x="1617" d="M41 123l135 137q-135 184 -135 445q0 340 215 535.5t553 195.5q242 0 428 -105l145 148l195 -189l-137 -137q137 -182 137 -448q0 -338 -215 -534t-553 -196q-242 0 -428 105l-145 -148zM506 715q0 -49 14 -107l410 414q-57 23 -121 22q-137 0 -220 -91t-83 -238z M649 1475l144 297h368l-194 -297h-318zM700 403q49 -18 109 -18q137 0 219 91t82 239q0 55 -8 94z" />
<glyph unicode="&#x1ff;" horiz-adv-x="1269" d="M31 520q0 256 168 400.5t436 144.5q182 0 326 -70l104 101l164 -160l-92 -86q102 -135 102 -330q0 -256 -168 -400.5t-436 -144.5q-190 0 -332 74l-104 -100l-164 157l94 91q-98 133 -98 323zM471 526q0 -23 2 -34l229 229q-31 10 -63 10q-74 0 -121 -55.5t-47 -149.5z M471 1116l143 297h369l-195 -297h-317zM582 334q25 -12 57 -12q76 0 123 55t47 149q0 23 -2 33z" />
<glyph unicode="&#x237;" horiz-adv-x="624" d="M-92 -358l10 348q31 -10 82 -10q43 0 62.5 19t19.5 77v968h461v-993q0 -227 -109 -327q-109 -102 -317 -103z" />
<glyph unicode="&#x2c6;" horiz-adv-x="1024" d="M117 1116l164 297h460l164 -297h-297l-96 174l-98 -174h-297z" />
<glyph unicode="&#x2c7;" horiz-adv-x="1024" d="M117 1413h297l98 -174l96 174h297l-164 -297h-460z" />
<glyph unicode="&#x2d8;" horiz-adv-x="1024" d="M123 1413h184q43 -102 205 -102t205 102h184q-23 -150 -126 -223.5t-263 -73.5t-263 73.5t-126 223.5z" />
<glyph unicode="&#x2d9;" horiz-adv-x="1024" d="M342 1269.5q0 71.5 50 118t120 46.5t119 -46.5t49 -117.5q0 -74 -49 -122t-119 -48t-120 49t-50 120.5z" />
<glyph unicode="&#x2da;" horiz-adv-x="1024" d="M246 1331.5q0 110.5 75.5 167.5t190.5 57t190.5 -57t75.5 -167.5t-75.5 -168t-190.5 -57.5t-190.5 57.5t-75.5 168zM410 1331q0 -92 102 -92t102 92t-102 92t-102 -92z" />
<glyph unicode="&#x2db;" horiz-adv-x="1024" d="M246 -225q0 154 164 235h215v-10q-55 -29 -99.5 -72t-44.5 -92q0 -82 113 -82q72 0 133 41l51 -102q-14 -12 -38.5 -28.5t-94.5 -45.5t-133 -29q-117 0 -191.5 45.5t-74.5 139.5z" />
<glyph unicode="&#x2dc;" horiz-adv-x="1024" d="M92 1137q0 111 82 195.5t195 84.5q92 0 168 -45q84 -47 112 -47q70 0 99 88l184 -20q0 -111 -82 -197t-195 -86q-86 0 -170 47q-76 45 -112 45q-68 0 -97 -86z" />
<glyph unicode="&#x2dd;" horiz-adv-x="1024" d="M31 1116l153 297h359l-205 -297h-307zM481 1116l154 297h358l-205 -297h-307z" />
<glyph unicode="&#x1e80;" horiz-adv-x="2078" d="M-20 1413h481l174 -788l174 788h461l174 -788l174 788h481l-399 -1413h-471l-191 799l-188 -799h-471zM782 1782h369l143 -297h-317z" />
<glyph unicode="&#x1e81;" horiz-adv-x="1812" d="M-10 1044h461l133 -552l133 552h379l133 -552l133 552h461l-338 -1044h-441l-139 512l-137 -512h-440zM649 1413h369l143 -297h-317z" />
<glyph unicode="&#x1e82;" horiz-adv-x="2078" d="M-20 1413h481l174 -788l174 788h461l174 -788l174 788h481l-399 -1413h-471l-191 799l-188 -799h-471zM782 1485l144 297h368l-194 -297h-318z" />
<glyph unicode="&#x1e83;" horiz-adv-x="1812" d="M-10 1044h461l133 -552l133 552h379l133 -552l133 552h461l-338 -1044h-441l-139 512l-137 -512h-440zM649 1116l144 297h368l-194 -297h-318z" />
<glyph unicode="&#x1e84;" horiz-adv-x="2078" d="M-20 1413h481l174 -788l174 788h461l174 -788l174 788h481l-399 -1413h-471l-191 799l-188 -799h-471zM655 1632q0 74 48.5 119t122 45t120.5 -45t47 -119q0 -72 -48 -118t-120 -46q-74 0 -122 46t-48 118zM1085 1632q0 74 48.5 119t122 45t120.5 -45t47 -119 q0 -72 -48 -118t-120 -46q-74 0 -122 46t-48 118z" />
<glyph unicode="&#x1e85;" horiz-adv-x="1812" d="M-10 1044h461l133 -552l133 552h379l133 -552l133 552h461l-338 -1044h-441l-139 512l-137 -512h-440zM522 1264q0 74 48 118.5t122 44.5t121 -45t47 -118q0 -72 -48 -118t-120 -46q-74 0 -122 46t-48 118zM952 1264q0 74 48.5 118.5t122 44.5t120.5 -45t47 -118 q0 -72 -48 -118t-120 -46q-74 0 -122 46t-48 118z" />
<glyph unicode="&#x1ef2;" d="M-41 1413h512l209 -477l211 477h512l-492 -860v-553h-462v553zM362 1782h369l143 -297h-317z" />
<glyph unicode="&#x1ef3;" horiz-adv-x="1249" d="M-20 1044h481l168 -542l170 542h471l-430 -1064q-72 -178 -156 -268.5t-244 -90.5q-104 0 -199.5 15.5t-138.5 31.5l-41 15l93 327q61 -31 143 -30q41 0 62.5 12t29.5 49zM307 1413h369l143 -297h-317z" />
<glyph unicode="&#x2000;" horiz-adv-x="962" />
<glyph unicode="&#x2001;" horiz-adv-x="1925" />
<glyph unicode="&#x2002;" horiz-adv-x="962" />
<glyph unicode="&#x2003;" horiz-adv-x="1925" />
<glyph unicode="&#x2004;" horiz-adv-x="641" />
<glyph unicode="&#x2005;" horiz-adv-x="481" />
<glyph unicode="&#x2006;" horiz-adv-x="319" />
<glyph unicode="&#x2007;" horiz-adv-x="319" />
<glyph unicode="&#x2008;" horiz-adv-x="239" />
<glyph unicode="&#x2009;" horiz-adv-x="385" />
<glyph unicode="&#x200a;" horiz-adv-x="106" />
<glyph unicode="&#x2010;" horiz-adv-x="788" d="M72 362v349h645v-349h-645z" />
<glyph unicode="&#x2011;" horiz-adv-x="788" d="M72 362v349h645v-349h-645z" />
<glyph unicode="&#x2012;" horiz-adv-x="788" d="M72 362v349h645v-349h-645z" />
<glyph unicode="&#x2013;" horiz-adv-x="1024" d="M0 369v338h1024v-338h-1024z" />
<glyph unicode="&#x2014;" horiz-adv-x="2048" d="M51 369v338h1946v-338h-1946z" />
<glyph unicode="&#x2018;" horiz-adv-x="808" d="M113 829l235 584h379l-184 -584h-430z" />
<glyph unicode="&#x2019;" horiz-adv-x="808" d="M82 829l184 584h430l-235 -584h-379z" />
<glyph unicode="&#x201a;" horiz-adv-x="808" d="M82 -246l184 584h430l-235 -584h-379z" />
<glyph unicode="&#x201c;" horiz-adv-x="1331" d="M123 829l235 584h359l-185 -584h-409zM645 829l236 584h358l-184 -584h-410z" />
<glyph unicode="&#x201d;" horiz-adv-x="1331" d="M92 829l184 584h410l-235 -584h-359zM614 829l185 584h409l-235 -584h-359z" />
<glyph unicode="&#x201e;" horiz-adv-x="1331" d="M92 -246l184 584h410l-235 -584h-359zM614 -246l185 584h409l-235 -584h-359z" />
<glyph unicode="&#x2020;" horiz-adv-x="1484" d="M154 717v327h409v451h359v-451h409v-327h-409v-993h-359v993h-409z" />
<glyph unicode="&#x2021;" horiz-adv-x="1484" d="M154 133v328h409v297h-409v327h409v410h359v-410h409v-327h-409v-297h409v-328h-409v-409h-359v409h-409z" />
<glyph unicode="&#x2022;" d="M307 747.5q0 153.5 109.5 263t263.5 109.5t264.5 -109.5t110.5 -263t-110.5 -264t-264.5 -110.5t-263.5 110.5t-109.5 264z" />
<glyph unicode="&#x2026;" horiz-adv-x="2048" d="M106 199q0 106 69 164.5t183 58.5q113 0 181.5 -59.5t68.5 -164t-68.5 -163t-181.5 -58.5q-115 0 -183.5 59t-68.5 163zM772 199q0 106 68.5 164.5t183.5 58.5q113 0 181.5 -59.5t68.5 -164t-68.5 -163t-181.5 -58.5q-115 0 -183.5 59t-68.5 163zM1438 199 q0 106 68.5 164.5t183.5 58.5q113 0 181 -59.5t68 -164t-68.5 -163t-180.5 -58.5q-115 0 -183.5 59t-68.5 163z" />
<glyph unicode="&#x202f;" horiz-adv-x="385" />
<glyph unicode="&#x2030;" horiz-adv-x="2816" d="M61 1038q0 180 111 288t289 108t288.5 -107.5t110.5 -288.5q0 -178 -110.5 -285.5t-288.5 -107.5t-289 107.5t-111 285.5zM348 1044.5q0 -143.5 113 -143.5q117 0 117 143.5t-117 143.5q-113 0 -113 -143.5zM440 55l885 1399l180 -108l-887 -1397zM1085 362 q0 180 111 288t289 108t288.5 -107.5t110.5 -288.5q0 -178 -110.5 -285.5t-288.5 -107.5t-289 107.5t-111 285.5zM1372 368.5q0 -143.5 113 -143.5q117 0 117 143.5t-117 143.5q-113 0 -113 -143.5zM1956 362q0 180 110.5 288t288.5 108t289 -107.5t111 -288.5 q0 -178 -111 -285.5t-289 -107.5t-288.5 107.5t-110.5 285.5zM2243 368.5q0 -143.5 112 -143.5q117 0 117 143.5t-117 143.5q-112 0 -112 -143.5z" />
<glyph unicode="&#x2039;" horiz-adv-x="849" d="M143 522l349 482l215 -150l-242 -332l242 -334l-215 -147z" />
<glyph unicode="&#x203a;" horiz-adv-x="849" d="M143 188l240 334l-240 332l215 150l349 -482l-349 -481z" />
<glyph unicode="&#x2044;" horiz-adv-x="716" d="M-176 53l895 1411l174 -106l-895 -1411z" />
<glyph unicode="&#x205f;" horiz-adv-x="481" />
<glyph unicode="&#x20ac;" d="M133 424v246h88q-2 27 -2 47v41h-86v246h133q66 225 226.5 327.5t377.5 102.5q119 0 223.5 -26t151.5 -52l45 -25l-112 -327q-129 86 -256 86q-160 0 -195 -86h277v-246h-345v-88h345v-246h-277q8 -37 56 -60.5t128 -23.5q154 0 287 100l113 -338q-2 -2 -16 -11l-24 -16 q-11 -7 -35 -20.5t-46.5 -22.5t-57 -20.5t-72.5 -17.5t-87 -11.5t-103 -5.5q-487 0 -614 447h-123z" />
<glyph unicode="&#x2122;" horiz-adv-x="1894" d="M92 1233v180h649v-180h-215v-680h-219v680h-215zM782 553l52 860h296l144 -543h6l143 543h297l52 -860h-226l-20 563h-6l-148 -563h-190l-148 563h-6l-20 -563h-226z" />
<glyph unicode="&#x220f;" horiz-adv-x="1787" d="M102 408v225h187v158h-187v225h187v397h479q342 0 545 -170q115 -98 170 -227h203v-225h-148q4 -53 4 -84q0 -29 -4 -74h148v-225h-199q-57 -141 -174 -240q-199 -168 -545 -168h-479v408h-187zM618 281h168q188 0 295 102q12 10 25 25h-488v-127zM618 633h584q4 45 4 74 q0 43 -6 84h-582v-158zM618 1016h484l-21 22q-109 100 -295 101h-168v-123z" />
<glyph unicode="&#x2212;" horiz-adv-x="1505" d="M164 543v327h1177v-327h-1177z" />
<glyph unicode="&#x2260;" horiz-adv-x="1505" d="M164 276v328h401l37 205h-438v328h495l31 184h338l-31 -184h344v-328h-401l-37 -205h438v-328h-497l-31 -184h-338l31 184h-342z" />
<glyph unicode="&#x2264;" horiz-adv-x="2015" d="M96 819q0 47 34 81t81 34t81 -34t34 -81t-34 -80.5t-81 -33.5t-81 33.5t-34 80.5zM270 584q0 47 34 80.5t81 33.5t81 -33.5t34 -80.5t-34 -81t-81 -34t-81 34t-34 81zM270 1055q0 47 34 80.5t81 33.5t81 -33.5t34 -80.5t-34 -81t-81 -34t-81 34t-34 81zM434 819 q0 47 34 81t81 34t81 -34t34 -81t-34 -80.5t-81 -33.5t-81 33.5t-34 80.5zM444 348q0 47 34 81t81 34t81 -34t34 -81t-34 -81t-81 -34t-81 34t-34 81zM444 1290q0 47 34 81t81 34t81 -34t34 -81t-34 -80.5t-81 -33.5t-81 33.5t-34 80.5zM618 113q0 47 34 80.5t81 33.5 t81 -33.5t34 -80.5t-34 -81t-81 -34t-81 34t-34 81zM618 1526q0 47 34 80.5t81 33.5t81 -33.5t34 -80.5t-34 -81t-81 -34t-81 34t-34 81zM772 819q0 47 34 81t81 34t80.5 -34t33.5 -81t-33.5 -80.5t-80.5 -33.5t-81 33.5t-34 80.5zM1110 819q0 47 34 81t81 34t80.5 -34 t33.5 -81t-33.5 -80.5t-80.5 -33.5t-81 33.5t-34 80.5zM1448 819q0 47 34 81t81 34t80.5 -34t33.5 -81t-33.5 -80.5t-80.5 -33.5t-81 33.5t-34 80.5zM1786 819q0 47 33.5 81t81 34t81 -34t33.5 -81t-33.5 -80.5t-81 -33.5t-81 33.5t-33.5 80.5z" />
<glyph unicode="&#x2265;" horiz-adv-x="2015" d="M0 819q0 47 34 81t81 34t80.5 -34t33.5 -81t-33.5 -80.5t-80.5 -33.5t-81 33.5t-34 80.5zM338 819q0 47 34 81t81 34t80.5 -34t33.5 -81t-33.5 -80.5t-80.5 -33.5t-81 33.5t-34 80.5zM676 819q0 47 33.5 81t81 34t81 -34t33.5 -81t-33.5 -80.5t-81 -33.5t-81 33.5 t-33.5 80.5zM1014 819q0 47 33.5 81t81 34t81 -34t33.5 -81t-33.5 -80.5t-81 -33.5t-81 33.5t-33.5 80.5zM1167 113q0 47 34 80.5t81 33.5t81 -33.5t34 -80.5t-34 -81t-81 -34t-81 34t-34 81zM1167 1526q0 47 34 80.5t81 33.5t81 -33.5t34 -80.5t-34 -81t-81 -34t-81 34 t-34 81zM1341 348q0 47 34 81t81 34t81 -34t34 -81t-34 -81t-81 -34t-81 34t-34 81zM1341 1290q0 47 34 81t81 34t81 -34t34 -81t-34 -80.5t-81 -33.5t-81 33.5t-34 80.5zM1352 819q0 47 33.5 81t80.5 34t81 -34t34 -81t-34 -80.5t-81 -33.5t-80.5 33.5t-33.5 80.5z M1516 584q0 47 33.5 80.5t80.5 33.5t81 -33.5t34 -80.5t-34 -81t-81 -34t-80.5 34t-33.5 81zM1516 1055q0 47 33.5 80.5t80.5 33.5t81 -33.5t34 -80.5t-34 -81t-81 -34t-80.5 34t-33.5 81zM1690 819q0 47 33.5 81t80.5 34t81 -34t34 -81t-34 -80.5t-81 -33.5t-80.5 33.5 t-33.5 80.5z" />
<glyph unicode="&#xe000;" horiz-adv-x="1045" d="M0 1045h1045v-1045h-1045v1045z" />
<glyph unicode="&#xf6c3;" horiz-adv-x="716" d="M102 -389l70 287h430l-127 -287h-373z" />
<glyph unicode="&#xf8ff;" horiz-adv-x="2947" d="M45 49q37 14 86 28.5t64 20.5q72 27 129 90.5t57 120.5q0 68 -46 107t-116 39q-145 0 -145 -84q0 -25 27.5 -40.5t60.5 -15.5q39 0 106 56v-15q-45 -63 -106 -63q-41 0 -73 21.5t-32 56.5q0 98 154 98q90 0 139 -46t49 -122q0 -57 -51 -114.5t-94 -84.5l29 -8 q86 -18 143 -52t109 -105h-3v-3q-6 0 -17 3.5t-17 3.5q-51 0 -52 -45q0 -43 50.5 -67t95.5 -24q63 0 96 43h-8q-37 0 -76 19.5t-39 58.5q0 43 53 43q37 0 69 -25.5t32 -58.5q0 -2 -1 -8t-1 -8q49 12 86 47t37 90q0 29 -11 60h7q12 -18 12 -60q0 -57 -41 -100t-98 -53 q-31 -57 -117 -58q-55 0 -105.5 25.5t-50.5 75.5q0 25 14.5 41t38.5 16q14 0 25 -2q-131 115 -295 115q-53 -1 -174 -17zM113 1204q0 76 48 142.5t115 66.5q6 0 15.5 -1t11.5 -1v-10h-18q-66 0 -113 -61.5t-47 -133.5q0 -68 49 -102q55 125 161.5 248t176.5 123 q63 0 63 -109q0 -88 -72.5 -169t-166.5 -116v-2q-2 -2 -2 -4q-45 -184 -45 -237q0 -31 18.5 -50.5t32.5 -23.5t25 -4q49 0 100 37q-29 20 -70 20q-45 0 -57 -12v6q18 18 51 18q53 0 86 -24q86 76 86 186q0 90 -57 90q-55 0 -90 -48t-35 -103q0 -61 37 -62q29 0 46 36t17 71 q0 8 -4 24h12q4 -8 5 -24q0 -39 -23 -79t-53 -40q-49 0 -49 78q0 55 37.5 108.5t93.5 53.5q43 0 68.5 -38t25.5 -91q0 -109 -98 -179q25 -25 24 -69q0 -76 -88 -113q2 -2 2 -8q0 -29 -26.5 -50.5t-55.5 -21.5h-8l6 6q18 0 43 17.5t25 42.5v10q-37 -14 -80 -14t-91 17.5 t-48 51.5q0 25 28.5 37.5t55.5 12.5q35 0 81 -24t64 -54q72 31 72 94q0 39 -17 57q-55 -33 -114 -32q-96 0 -159 67.5t-63 181.5q0 31 21 88q-53 39 -53 119zM217 657q0 -49 109 -49q43 0 84 15q-18 29 -57.5 50t-71.5 21q-64 0 -64 -37zM340 1100q82 37 141.5 127t59.5 186 q0 41 -29 41q-18 0 -34.5 -20.5t-43.5 -77.5q0 -2 -8 -20.5t-18 -48.5l-23 -62l-25 -68zM444 152q0 43 25 77.5t63 34.5q51 0 52 -59q0 -43 -22.5 -77t-61.5 -34q-6 0 -17.5 5t-15.5 5q6 -25 26.5 -42t41.5 -17q33 0 59.5 21.5t44.5 67.5t28.5 80t24.5 95q-45 18 -71 64 q-18 -6 -29 -6q-115 0 -115 118q0 92 65.5 165t157.5 73q74 0 130.5 -25.5t72.5 -25.5q12 0 33 4v-8q-115 -27 -188 -129q-4 39 -33 62.5t-70 23.5q-59 0 -105 -50.5t-46 -111.5q0 -86 92 -86q16 0 28 6q-10 20 -10 57q0 41 21.5 70t44.5 29q35 0 35 -41q0 -33 -21.5 -66 t-52.5 -51q16 -37 63 -57q35 139 97 215q23 27 64.5 59.5t78.5 36.5v-10q-96 -45 -96 -224q0 -20 4 -77q66 35 65 94q0 49 -24 78v2q27 -12 30 -62q35 66 101 66q47 0 71.5 -44t24.5 -108q0 -23 -36 -117t-36 -137q0 -35 19 -35q25 0 45 31t35.5 86t27 106.5t24.5 117.5 l19 96q33 -16 54 -17q23 0 69 33q-4 -25 -25.5 -117t-33.5 -161.5t-12 -118.5v-15l2 -28q76 -16 75 -103q0 -57 -49 -98h-14q51 43 51 92q0 72 -59 84q10 -61 10 -106q0 -78 -65.5 -119t-147.5 -41q-53 0 -95 29.5t-42 81.5q0 47 31.5 66.5t62.5 19.5q18 0 27 -3 q29 55 92 82v7q-6 14 -6 47q-41 -84 -113 -84q-39 0 -65.5 42t-26.5 103q0 43 36.5 136t36.5 122q0 47 -18 47q-23 0 -44 -24.5t-24 -36.5q0 -72 -69 -109q0 -291 -238 -291q-70 0 -117 33t-47 101zM582 -84q0 -27 30.5 -40t61.5 -13t31 26q0 29 -26 48.5t-54 19.5 q-43 0 -43 -41zM618 438.5q0 -30.5 9 -47.5q68 47 67 105q0 31 -24 30q-27 0 -39.5 -28.5t-12.5 -59zM629 965q0 72 77.5 169t139.5 97q31 0 49 -47l10 41q39 -14 53.5 -14.5t25.5 4t26.5 15.5t17.5 11q-4 -25 -25.5 -126t-38 -191t-16.5 -115q0 -27 17 -27q27 0 59 86h14 q-27 -109 -94 -108q-33 0 -60.5 24.5t-35.5 73.5q-31 -61 -53.5 -80.5t-53.5 -19.5q-53 0 -82.5 69.5t-29.5 137.5zM750 797q0 -16 12 -17q47 0 84 146q4 59 35 198q0 90 -29 90q-18 0 -33.5 -36.5t-19.5 -67.5q-49 -217 -49 -313zM944 -113q0 -43 35 -67.5t80 -24.5 q43 0 83 27.5t40 73.5q0 20 -7.5 45.5t-18.5 58.5t-15 43q-59 -20 -82 -70q29 -10 45 -32.5t16 -40.5q0 -12 -11 -25.5t-29.5 -13.5t-33 19.5t-14.5 40t4 30.5h-24q-68 -1 -68 -64zM991 602q0 27 22.5 39t47.5 12l94 -10q51 0 51 37q0 23 -18.5 36t-42.5 13q-45 0 -45 -29 q0 -23 24 -22q18 0 35 10l2 -12q-16 -8 -35 -8q-39 0 -39 30q0 16 20.5 28.5t39.5 12.5q31 0 51.5 -16t20.5 -41q0 -47 -64 -47l-94 10q-61 0 -62 -43q0 -29 43 -29q27 0 80.5 26t71.5 26q43 0 69.5 -29t26.5 -74l-8 2v4q-6 41 -29.5 60.5t-46.5 19.5q-14 0 -63 -23.5 t-99 -23.5q-53 0 -53 41zM1051 -74q0 -49 24.5 -49t24.5 19q0 31 -47 51q-2 -9 -2 -21zM1067 1122q10 33 19.5 52.5t32 37t52.5 17.5q82 0 97 -92l15 23q11 17 18.5 26.5t19.5 22t26.5 17.5t30.5 5q47 0 75 -56.5t28 -130.5q0 -82 -41 -202.5t-41 -177.5q0 -59 23.5 -90 t53 -38.5t57.5 -35t36 -76.5q47 78 94 78q55 0 89 -71t34 -132q0 -63 -27 -125q31 -45 31 -94q0 -72 -41 -131.5t-111 -59.5q-27 0 -45 16.5t-18 41.5q0 18 13.5 31.5t31.5 13.5h12v-8q-16 0 -30.5 -10.5t-14.5 -26.5q0 -18 13.5 -30.5t31.5 -12.5q59 0 102.5 61.5 t43.5 120.5q0 35 -23 72q-61 -129 -143 -129q-61 0 -62 86q0 55 30 88t60 39q23 143 23 223q0 16 -18 16q-10 0 -25.5 -12t-30 -43t-14.5 -72q0 -43 -47 -282.5t-55 -266.5q-33 16 -54 17q-18 0 -67 -33l34 184l57 310q26 147 25 172q0 47 -25.5 75.5t-55 46t-55 78 t-25.5 162.5q0 55 37.5 177t37.5 182q0 35 -14 34q-18 0 -48 -34.5t-50 -88.5q-4 -27 -19 -103l-27 -149q-13 -73 -16 -79q-37 18 -53 18q-37 0 -63 -20q4 20 22.5 124.5t31.5 190.5t13 111q0 29 -14 28q-27 0 -62 -86h-16zM1487 645v2q72 -80 155 -80q45 0 68 21 q-72 10 -139.5 52t-67.5 116q0 37 17 55l8 -6q-8 -29 -8 -45q0 -68 65.5 -105t143.5 -45q6 12 6 29q0 37 -31 62.5t-72 25.5q-37 0 -63 -16l-6 2q25 25 67.5 24.5t78.5 -28t36 -68.5q0 -14 -4 -31h6q59 0 108.5 30t61.5 89l16 -8q-12 -55 -68.5 -95t-123.5 -40h-17 q-27 -27 -77 -27q-115 0 -160 86zM1546 965q0 72 77 169t138 97q39 0 54 -47l10 41q39 -14 55 -14.5t68 30.5q-78 -399 -78 -432q0 -27 12 -27q29 0 62 86h14q-27 -109 -92 -108q-78 0 -99 98q-31 -59 -54 -79.5t-50 -20.5q-55 0 -86 69.5t-31 137.5zM1561 106q0 -57 36 -57 q8 0 14.5 12.5t10.5 35.5l7 41q3 17 6 47t3 38q-33 -2 -55 -39t-22 -78zM1669 797q0 -16 10 -17q51 0 86 146q2 43 35 198q0 90 -28 90q-12 0 -20.5 -7t-14.5 -22.5t-9.5 -25.5t-6.5 -28.5t-3 -20.5q-49 -270 -49 -313zM1829 252q0 72 84 161t176 89q35 0 58.5 -25.5 t23.5 -81.5q0 -70 -66.5 -121t-140.5 -59q-20 -102 -20 -135q0 -35 41 -35q8 0 12 2v2q0 63 40 130t97 67q27 0 27 -41q0 -51 -48.5 -108.5t-101.5 -63.5q0 -178 115 -178q90 0 201 110q-129 61 -129 197q0 51 29.5 96t78.5 55v-6q-47 -12 -71.5 -55t-24.5 -96 q0 -119 131 -176q90 100 123 208l-185 56l80 32l-106 220l86 -27l-19 129l84 -92l50 72l49 -160l69 219l35 -57l127 75v-145h78l-168 -166l166 47l-27 -86l125 -12l-121 -57l66 -52l-232 -45l17 -82l-144 115q-51 -117 -131 -201q35 -14 84 -14q109 0 150 84h4 q-8 -47 -52 -75.5t-93 -28.5q-51 0 -109 20q-117 -121 -231 -121q-119 0 -119 195q-2 -2 -12 -2q-63 0 -109.5 58.5t-46.5 164.5zM1966 231q57 8 94 84t37 136q0 35 -16 34q-66 0 -115 -254zM1980 965q0 72 77 169t138 97q35 0 50 -39q8 49 19 102l18 85q7 32 8 36 q33 -16 53 -16t72 33q-113 -596 -113 -623t14 -27q27 0 54.5 52.5t39.5 101.5h19q-47 -176 -125 -176q-35 0 -64.5 25.5t-37.5 74.5q-31 -61 -54.5 -81.5t-52.5 -20.5q-55 0 -85 69.5t-30 137.5zM1997 639q0 31 25.5 59.5t60.5 30.5v-6q-27 -4 -48.5 -25.5t-21.5 -46.5 q0 -84 117 -84q125 0 129 80q-4 -2 -12 -2q-37 0 -62.5 15.5t-25.5 41.5q0 12 12 21.5t24 9.5q25 0 45.5 -19.5t28.5 -45.5q51 6 95 43t57 84h4q-10 -63 -54 -101.5t-102 -46.5q0 -43 -43 -75.5t-100 -32.5q-49 0 -89 23.5t-40 76.5zM2009 49q39 0 87 56.5t48 105.5 q0 23 -14 22q-45 0 -83 -62t-38 -118v-4zM2099 797q0 -16 15 -17q39 0 61.5 70t58.5 291q-4 74 -30 73q-10 0 -17.5 -6t-12.5 -14t-9 -21.5t-6 -22.5l-6 -24q-3 -14 -3 -16q-51 -225 -51 -313zM2177 700q0 -33 74 -32h6q-12 53 -55 53q-25 -1 -25 -21zM2456 965 q0 72 77.5 169t139.5 97q35 0 53 -47l10 41q39 -14 53 -15q20 0 68 31q-4 -23 -24.5 -125t-37 -192t-16.5 -115q0 -27 14 -27q27 0 60 86h16q-31 -109 -94 -108q-80 0 -96 98q-33 -61 -55.5 -80.5t-49.5 -19.5q-55 0 -86.5 69.5t-31.5 137.5zM2578 797q0 -16 13 -17 q49 0 84 146q4 59 35 198q0 90 -29 90q-39 0 -53 -104q-50 -270 -50 -313z" />
</font>
</defs>
</svg>
